<?xml version="1.0" encoding="UTF-8" standalone="no"?>
<!-- Created with Inkscape (http://www.inkscape.org/) -->

<svg
   width="102.895"
   height="240"
   viewBox="0 0 27.224301 63.5"
   version="1.1"
   id="svg1"
   inkscape:version="1.4.2 (ebf0e940, 2025-05-08)"
   sodipodi:docname="oatmilk.svg"
   xmlns:inkscape="http://www.inkscape.org/namespaces/inkscape"
   xmlns:sodipodi="http://sodipodi.sourceforge.net/DTD/sodipodi-0.dtd"
   xmlns="http://www.w3.org/2000/svg"
   xmlns:svg="http://www.w3.org/2000/svg">
  <sodipodi:namedview
     id="namedview1"
     pagecolor="#ffffff"
     bordercolor="#000000"
     borderopacity="0.25"
     inkscape:showpageshadow="2"
     inkscape:pageopacity="0.0"
     inkscape:pagecheckerboard="0"
     inkscape:deskcolor="#d1d1d1"
     inkscape:document-units="mm"
     inkscape:zoom="0.89887065"
     inkscape:cx="394.94003"
     inkscape:cy="551.80353"
     inkscape:window-width="2560"
     inkscape:window-height="1381"
     inkscape:window-x="0"
     inkscape:window-y="31"
     inkscape:window-maximized="0"
     inkscape:current-layer="layer1" />
  <defs
     id="defs1" />
  <g
     inkscape:label="Layer 1"
     inkscape:groupmode="layer"
     id="layer1">
    <g
       id="g1"
       transform="matrix(0.16405564,0,0,0.16405564,-17.102114,5.0785115)">
      <path
         id="path299"
         d="m 222.3009,-19.117028 c 0.94898,-0.01765 1.42875,-0.324554 1.35821,-1.199444 -0.0635,-0.832556 -0.0917,-1.672166 -0.23989,-2.49061 -0.0388,-0.197556 -0.4939,-0.313973 -0.8255,-0.508 -0.10232,1.49225 -0.1905,2.755194 -0.29282,4.198054 z m 5.00592,-2.547054 c -1.08302,-0.451556 -1.9826,-0.8255 -3.06917,-1.277056 0,1.2065 0,2.176639 0,3.234973 1.15713,-0.27164 2.22605,-0.627947 3.06917,-1.957917 z m -8.36435,-2.63878 c 0,2.141363 0,4.021667 0,6.088947 0.83256,-0.1905 1.61218,-0.370417 2.32126,-0.532697 0.56799,-3.340803 0.53975,-4.14161 -0.31395,-4.99886 0,0.93486 0.0564,1.707444 -0.0177,2.465917 -0.0706,0.74789 0.22577,1.63336 -0.8396,2.54 -0.0635,-1.217083 -0.0529,-2.0955 -0.16933,-2.95275 -0.11642,-0.829027 0.49387,-1.908527 -0.98073,-2.610557 z m 7.30956,22.2073631 c -0.67381,0.1834435 -1.27355,0.3316102 -1.86621,0.5044704 -7.53534,2.21191667 -15.23294,3.58775 -23.02579,4.4802769 -7.07673,0.8078628 -14.18167,0.79375 -21.27956,0.6491128 -6.42761,-0.1305295 -12.827,-0.6808628 -19.14525,-1.9296961 -4.30036,-0.8501936 -8.636,-1.55927692 -12.62592,-3.4713307 -0.97719,1.90852688 -0.66675,3.3090538 0.98777,4.2192204 1.32998,0.7337769 2.69875,1.4075833 4.10633,1.9755564 5.47865,2.2119167 11.2395,3.2949435 17.07798,3.937 14.21694,1.5663333 28.36334,1.0265833 42.418,-1.6686398 3.93348,-0.7549435 7.7964,-1.7850564 11.51467,-3.2949435 2.26835,-0.9172231 3.00918,-3.0197795 1.83798,-5.4010268 z M 148.94078,-22.369638 c -0.22931,-0.490361 -0.39865,-0.677334 -0.37748,-0.84314 0.12348,-1.001887 0.79023,-1.643944 1.66158,-1.961444 1.42169,-0.52211 2.86809,-1.033639 4.34623,-1.340556 6.82271,-1.414637 13.75479,-1.707444 20.69394,-1.837971 11.2889,-0.211666 22.55308,0.275167 33.782,1.502834 5.60565,0.613833 11.18306,1.435803 16.59115,3.122083 0.26103,0.08114 0.54678,0.08819 0.82195,0.130527 -0.68437,-0.596194 -1.41462,-1.044223 -2.20485,-1.28411 -2.37067,-0.719667 -4.73427,-1.502834 -7.15082,-2.00378 -8.41726,-1.74272 -16.95095,-2.462387 -25.53051,-2.751666 -11.29242,-0.384527 -22.56719,-0.194027 -33.7679,1.404056 -3.1115,0.4445 -6.17009,1.280583 -9.22867,2.039056 -0.90662,0.225777 -1.7921,0.705554 -2.5682,1.245304 -1.1148,0.772583 -1.10773,1.848557 0.003,2.60703 0.91723,0.627943 1.95085,1.086553 2.65289,1.467553 1.12184,-0.624416 1.93321,-1.210026 2.83634,-1.55222 1.2065,-0.455083 2.46943,-0.79728 3.73237,-1.061863 7.66233,-1.594554 15.42346,-1.989667 23.22338,-1.749777 2.06727,0.0635 4.1275,0.282223 6.1877,0.43039 0,0.112887 0,0.225777 0,0.338667 -10.59037,-0.63853 -21.08904,-0.22578 -31.42543,2.501193 0.26458,0.264584 0.54327,0.42686 0.84314,0.518584 2.21192,0.670276 4.445,1.266473 6.63575,2.00025 2.32127,0.77611 4.70252,1.185333 7.12259,1.372306 6.24062,0.479777 12.48127,0.92075 18.72191,1.375833 0.22225,0.01765 0.58561,-0.03528 0.64559,0.07408 0.50445,0.931333 1.36877,0.5715 2.08491,0.582083 7.50711,0.105833 15.00362,-0.20814 22.46842,-1.044223 2.16958,-0.243417 4.32152,-0.627944 6.51227,-0.9525 0,-1.756833 0.0459,-3.326694 -0.014,-4.893027 -0.0529,-1.40053 -0.0953,-1.43228 -1.55223,-1.679223 -7.06615,-1.199444 -14.17815,-1.95439 -21.33952,-2.33186 -11.56407,-0.613834 -23.12107,-0.769057 -34.65338,0.423333 -3.06562,0.3175 -6.10304,1.033637 -9.12284,1.69686 -1.14651,0.250473 -2.3636,0.68086 -2.6317,2.455334 z M 261.95665,131.12749 c -0.0776,0.0141 -0.15169,0.0282 -0.22929,0.0423 -0.014,0.16228 -0.0635,0.33514 -0.0353,0.49389 2.10608,12.64003 3.45371,25.36826 4.17338,38.15292 0.56795,10.13529 0.88193,20.29177 1.04775,30.44471 0.19753,12.18848 -0.11997,24.37696 -0.85022,36.54425 -0.44802,7.43302 -0.80078,14.87665 -1.55575,22.27791 -1.00187,9.81427 -2.24718,19.60386 -3.57716,29.37934 -1.48167,10.89731 -3.55246,21.69231 -6.33587,32.34266 -0.21167,0.81844 -0.37042,1.65807 -0.68088,2.43769 -0.24694,0.62442 -0.60677,1.2065 -1.53811,0.83963 -0.29633,-0.1129 -0.8255,0.1552 -1.16064,0.37745 -9.46854,6.40292 -19.70969,11.15484 -30.66696,14.36865 -10.33288,3.02683 -20.88091,4.70606 -31.64064,5.16115 -10.59392,0.45154 -21.09259,-0.18698 -31.45367,-2.48357 -8.48432,-1.88031 -16.55233,-4.85068 -23.90423,-9.57439 -4.2545,-2.73402 -8.09271,-5.94429 -11.21479,-9.95186 -1.70746,-2.19427 -3.14325,-4.54731 -4.03931,-7.19666 -0.16227,-0.47977 -0.51859,-1.21357 -0.32809,-1.43227 0.91017,-1.05482 0.0388,-1.90148 -0.17285,-2.80459 -0.21873,-0.93133 -0.54329,-1.83798 -0.79375,-2.76225 -2.51883,-9.28158 -3.86998,-18.77131 -4.96712,-28.29631 -1.35819,-11.82865 -2.20133,-23.70315 -2.69169,-35.59881 -0.58208,-14.20987 -0.70556,-28.43036 -0.44803,-42.65081 0.27517,-15.29292 0.93839,-30.56821 2.33892,-45.79763 0.79022,-8.59012 1.79211,-17.16262 2.70228,-25.74219 0.13051,-1.23119 0.2681,-2.45886 0.40568,-3.69005 -0.36335,0.27517 -0.48682,0.58208 -0.57502,0.89958 -1.89441,7.03439 -3.34786,14.1605 -4.15925,21.40304 -1.45697,12.96104 -2.00025,25.98912 -2.31775,39.01721 -0.43039,17.54716 -0.35278,35.09081 0.80786,52.62385 0.55034,8.26913 0.58914,16.57704 1.4605,24.83204 0.63853,6.05719 1.1677,12.1285 1.95086,18.16804 0.94898,7.32721 2.04612,14.63323 3.20676,21.92867 1.1571,7.29546 2.46592,14.56621 3.71475,21.84754 0.15169,0.89958 0.42685,1.70392 1.21354,2.32127 2.57175,2.0179 5.01298,4.21923 7.66233,6.13127 15.03892,10.84088 32.07105,15.90323 50.38021,17.21908 5.86669,0.41982 11.72634,0.32809 17.59302,0.0177 8.3044,-0.43392 16.49235,-1.52048 24.52865,-3.7324 12.30135,-3.38312 23.48087,-8.9041 33.22108,-17.21202 0.64204,-0.54681 1.2065,-1.23473 1.93675,-1.61573 0.60325,-0.31395 0.78317,-0.68792 0.88194,-1.28058 1.51341,-9.17927 3.13618,-18.34092 4.54377,-27.53783 1.36173,-8.91469 2.68816,-17.84702 3.69713,-26.81111 0.90662,-8.0645 1.40051,-16.18191 1.99318,-24.28168 0.24694,-3.37257 0.20108,-6.76982 0.41627,-10.1459 0.65265,-10.25173 1.10773,-20.50695 1.10067,-30.78337 -0.0106,-14.95425 -0.33512,-29.90146 -1.25236,-44.83455 -0.51506,-8.3326 -1.13948,-16.66168 -2.68464,-24.88493 -0.51504,-2.73403 -1.13242,-5.44689 -1.70392,-8.17034 z M 127.47424,83.770608 c -0.13052,0.324556 -0.16227,0.504473 -0.26104,0.631473 -2.21546,2.797527 -3.4149,6.085416 -4.46265,9.42622 -2.50473,7.979829 -4.10985,16.167809 -5.3975,24.419279 -1.53106,9.81075 -2.59292,19.67441 -3.49955,29.56277 -1.10773,12.13908 -1.75684,24.3064 -2.21898,36.48429 -0.254,6.65337 -0.39158,13.31029 -0.50447,19.96721 -0.39158,23.37154 0.0811,46.71835 2.08845,70.01933 0.75847,8.77006 1.81328,17.50131 3.45015,26.15494 0.89255,4.70958 2.01084,9.36625 3.69713,13.87123 0.762,2.03906 1.86971,3.81706 3.38667,5.3975 4.42735,4.62491 9.6026,8.19502 15.34229,10.96433 13.13391,6.3359 27.12862,8.99935 41.59249,9.49325 8.71009,0.29633 17.36725,-0.39865 25.9433,-1.9544 16.49235,-2.9986 32.09218,-8.24793 45.79054,-18.27387 0.64913,-0.47625 1.00541,-0.93488 1.16064,-1.7145 1.34057,-6.74513 2.81165,-13.462 4.06752,-20.22123 3.03742,-16.32302 4.699,-32.81892 5.92667,-49.35715 0.61031,-8.21266 1.03013,-16.44295 1.32646,-24.67327 0.5856,-16.4747 0.40921,-32.94591 -0.44804,-49.41358 -0.65262,-12.5095 -1.72509,-24.98018 -3.44311,-37.39091 -1.37935,-9.95186 -3.15031,-19.82258 -5.84551,-29.50986 -2.09199,-7.51769 -4.63905,-14.858996 -8.97467,-21.445359 -0.0917,-0.137583 -0.0847,-0.342193 -0.12348,-0.518583 3.01273,3.100916 4.66373,6.977946 6.6181,10.696223 -0.55033,-2.77636 -1.3335,-5.471584 -2.413,-8.0645 -2.36008,-5.676194 -4.69194,-11.3665 -7.19312,-16.979193 -2.77283,-6.233584 -5.74675,-12.375444 -8.58663,-18.577277 -1.0795,-2.356557 -2.08137,-4.751917 -3.01625,-7.168446 -2.40945,-6.208887 -4.36385,-12.558887 -6.06777,-19.00061 -1.51693,-5.736167 -2.12725,-11.511137 -1.4605,-17.4166372 0.0812,-0.7020295 0.0106,-1.4181666 0.0106,-2.2330833 -0.47625,0.067027 -0.75849,0.074083 -1.016,0.1481667 -1.40407,0.4162769 -2.794,0.889 -4.20865,1.2664704 -7.93044,2.1060834 -16.00552,3.2914164 -24.1935,3.7747234 -10.11767,0.599723 -20.193,0.42686 -30.17309,-1.502834 -4.55435,-0.8819432 -9.02403,-2.0602227 -13.03512,-4.5261393 -0.16581,-0.098777 -0.40216,-0.07761 -0.69498,-0.1305269 0,0.9983602 -0.0882,1.901473 0.014,2.7798897 0.50096,4.2333335 0.53271,8.4878335 -0.35277,12.6364995 -1.05834,4.953 -2.28248,9.891887 -3.83117,14.710831 -1.87677,5.845529 -3.80648,11.687529 -6.56873,17.212029 -1.81679,3.626554 -3.52425,7.313083 -5.18229,11.01725 -2.76579,6.17361 -5.45748,12.382497 -8.1915,18.605497 0.32808,0.28575 0.61029,0.536223 0.94896,0.832557 z m 20.03779,-91.7716068 c -1.48873,2.7269704 -0.76906,4.5190832 2.1731,5.3093037 4.86482,1.3088064 9.81427,1.99672306 14.84135,2.33186018 5.97959,0.39863976 11.95565,0.38099999 17.93172,0.20108333 5.31987,-0.15875 10.53393,-1.11830381 15.73741,-2.14488711 4.72017,-0.9313333 9.34509,-2.1448897 13.53609,-4.6213897 0.17991,-0.1093602 0.42333,-0.1128871 0.63852,-0.1658038 -0.38807,0.5856102 -0.86077,0.9736667 -1.36877,1.3158602 -2.16255,1.4710833 -4.52615,2.5188333 -7.0203,3.2808333 -9.43679,2.89983331 -19.08527,4.4873333 -28.96658,4.5649435 -0.94192,0.00706 -1.88029,0.0635 -2.81869,0.09525 2.30365,0.3951102 4.60727,0.6455833 6.90034,0.6067769 4.84716,-0.088194 9.69433,-0.2504704 14.53443,-0.5150538 7.72583,-0.4233333 15.39523,-1.36172307 22.94115,-3.08327948 3.33727,-0.76199732 6.60048,-1.86972042 9.89542,-2.82574732 1.03364,-0.2998629 1.36876,-1.0230564 1.35114,-2.0566962 -0.0282,-1.9120538 -1.03013,-3.2420268 -2.36008,-4.4273599 -1.06892,0.6526395 -2.02142,1.3652497 -3.07623,1.8379728 -1.07244,0.4833038 -2.23308,0.7831667 -3.38315,1.0583333 -1.06892,0.254 -2.1731,0.8008038 -3.57362,-0.052917 1.88735,-0.5150565 3.4925,-0.9489731 5.0941,-1.3828898 -0.0212,-0.098777 -0.0423,-0.1975564 -0.0635,-0.2963333 -1.19943,0 -2.39535,0 -3.59481,0 -0.0246,-0.1058333 -0.0494,-0.2116667 -0.0741,-0.3210269 1.35822,-0.4445 2.71288,-0.9031121 4.08165,-1.3264461 1.43934,-0.448027 2.89277,-0.860777 4.33917,-1.291166 0.32102,-2.342444 0.68792,-3.196167 2.64231,-4.6355 1.51694,-1.114777 2.31775,-2.398887 2.01787,-4.296834 -0.0423,-0.271637 0.0282,-0.560916 0.0212,-0.843137 -0.0353,-1.569863 -0.31043,-1.887363 -1.74977,-2.257779 0.44098,0.98425 0.94544,2.109613 1.43934,3.20675 -1.016,1.146529 -2.09902,1.869723 -3.32669,2.296583 -1.80623,0.627946 -3.63008,1.248833 -5.48923,1.66864 -6.62869,1.499306 -13.39144,1.975556 -20.15419,2.233083 -13.67014,0.518583 -27.29796,-0.02117 -40.82698,-2.211917 -4.12398,-0.666749 -8.2056,-1.516943 -12.11791,-3.026833 -0.93134,-0.359833 -1.83798,-0.783166 -2.78342,-1.19239 -0.38452,2.76578 0.8749,4.48028 3.43252,4.86128 0.5574,0.08114 1.09715,0.25047 1.64396,0.39511 8.85119,2.356557 17.81879,3.929944 27.0016,4.289777 10.96082,0.433917 21.87223,0 32.74132,-1.516944 1.7921,-0.250473 3.59127,-0.437443 5.39043,-0.656166 -0.4445,0.33161 -0.91723,0.511527 -1.40406,0.599723 -2.94217,0.515054 -5.87021,1.143 -8.83354,1.485193 -5.71148,0.659694 -11.43,1.315861 -17.16265,1.68275 -8.19502,0.5256398 -16.383,-0.28575 -24.5745,-0.511526 -3.33727,-0.09172 -6.56518,-0.998363 -9.74373,-2.007307 -0.36335,-0.116417 -0.76552,-0.278693 -1.016,-0.543277 -0.99835,-1.061863 -2.15193,-1.629833 -3.60892,-1.672166 0.83963,2.003776 0.98425,3.908776 -0.70201,5.6126927 -0.26107,0.2645833 -0.38807,0.6632231 -0.57502,1.0018897 z m 36.89702,-22.9552502 c 0.60325,0.07761 1.20298,0.215194 1.80975,0.225777 12.319,0.23989 24.53217,1.456973 36.55835,4.219223 2.34246,0.536221 4.65315,1.284111 6.88975,2.162527 0.62796,0.246944 1.19946,1.248834 1.34408,1.993194 0.23284,1.195916 0.15523,2.465916 0.0882,3.70064 -0.0459,0.906639 -0.7338,1.467556 -1.397,2.024943 -0.89959,0.751417 -1.89442,1.4605 -2.56823,2.391833 -1.18886,1.63689 -1.00542,3.040947 0.36689,4.5684734 1.06186,1.1853333 1.76742,2.5011935 1.62277,4.1239731 -0.0635,0.7020268 -0.36335,1.3793602 -0.53268,2.0743333 -0.12348,0.5150537 -0.37748,1.0794999 -0.27517,1.5557499 0.635,2.9598038 -0.0388,4.7095807 -2.76931,6.434664 -0.067,1.6368897 -0.13407,3.425473 -0.20815,5.2105295 -0.1905,4.5825828 -0.1905,9.1863328 1.02306,13.6172198 1.56282,5.704417 3.39373,11.338277 5.22817,16.965084 1.94733,5.965473 4.73075,11.560526 7.48948,17.194389 3.5701,7.288387 6.5546,14.858997 10.01183,22.20736 3.50309,7.44361 5.90196,15.225887 7.93044,23.166916 2.7446,10.76325 5.69735,21.47358 8.39258,32.25094 1.63335,6.51933 2.40594,13.19741 2.99157,19.89314 2.01083,22.97642 1.96495,45.99869 1.56985,69.0245 -0.0882,5.30225 -0.53975,10.59392 -0.7761,15.89262 -0.1764,3.89115 -0.15172,7.79288 -0.43392,11.67342 -0.57857,7.874 -1.1148,15.76213 -2.01438,23.60438 -1.01245,8.79475 -2.50825,17.52952 -3.60537,26.31368 -1.03013,8.2409 -2.77283,16.34773 -4.34271,24.48277 -0.30692,1.59457 -0.86784,3.14325 -1.38994,4.6849 -0.13052,0.38806 -0.53975,0.6985 -0.86077,1.0019 -6.36058,5.99368 -13.7795,10.33637 -21.69583,13.9065 -9.57088,4.318 -19.58975,7.1402 -29.93673,8.763 -4.22627,0.66675 -8.51252,0.9666 -12.77057,1.44285 -0.55033,0.06 -1.09712,0.19402 -1.64745,0.29281 -1.46756,0 -2.93158,0 -4.39915,0 -2.46591,-0.22579 -4.92831,-0.46566 -7.39423,-0.67733 -15.79385,-1.35467 -30.8892,-5.16467 -44.831,-12.91873 -5.15408,-2.86808 -9.88483,-6.31825 -13.98762,-10.58333 -0.25754,-0.26811 -0.59267,-0.59267 -0.91723,-0.62794 -1.27706,-0.13054 -1.83444,-1.05481 -2.23308,-2.032 -0.41982,-1.03365 -0.71967,-2.14138 -0.92075,-3.24556 -1.37232,-7.48594 -2.80458,-14.96132 -4.02872,-22.47194 -1.25236,-7.6835 -2.39184,-15.38465 -3.38667,-23.0999 -0.77611,-6.03956 -1.397,-12.11085 -1.82033,-18.18216 -0.52564,-7.48242 -0.79023,-14.986 -1.13948,-22.479 -0.36336,-7.83519 -0.81138,-15.66685 -1.01952,-23.50559 -0.37395,-14.05112 -0.1517,-28.10226 0.60325,-42.13928 0.32102,-5.969 0.70202,-11.938 1.10772,-17.90348 0.68086,-9.93423 2.43769,-19.68501 5.05178,-29.29467 2.82574,-10.39284 5.5633,-20.80684 8.32555,-31.217306 1.17475,-4.42736 2.78342,-8.692443 4.6496,-12.87286 3.30555,-7.41539 6.57932,-14.848416 9.88132,-22.267333 0.64206,-1.439333 1.27706,-2.896306 2.03906,-4.27214 4.45204,-8.043333 7.4295,-16.672276 10.08237,-25.424693 0.88196,-2.910417 1.72863,-5.842 2.37773,-8.80886 0.78669,-3.594806 0.85373,-7.27075 0.762,-10.946694 -0.0529,-2.1378328 -0.007,-4.2791957 -0.007,-6.2512226 -0.89958,-0.9066397 -1.7921,-1.6721666 -2.51883,-2.5752768 -0.91721,-1.1359462 -1.00188,-2.49061286 -0.56092,-3.8558602 0.19756,-0.6138333 0.28575,-1.1465295 -0.0494,-1.7709462 -1.15713,-2.1378333 -0.88548,-4.1239704 0.6985,-6.0713037 0.45508,-0.5609167 1.016,-1.1394735 1.18885,-1.7991665 0.39865,-1.524 -0.10583,-2.882196 -1.23119,-3.993446 -0.15875,-0.15875 -0.34573,-0.296334 -0.54329,-0.402167 -2.37067,-1.291167 -3.27377,-3.27025 -2.8716,-5.923137 0.0706,-0.46214 -0.14465,-0.980723 -0.27869,-1.456973 -0.27165,-0.97014 -0.11996,-1.866194 0.71612,-2.420057 1.06892,-0.709083 2.19075,-1.396999 3.37963,-1.859137 3.33375,-1.291166 6.84035,-1.950862 10.37519,-2.307166 4.93183,-0.500946 9.88835,-0.790223 14.83077,-1.181807 0.38454,-0.02822 0.75848,-0.148166 1.13948,-0.225777 3.61243,0 7.22489,0 10.83733,0"
         style="fill:#000000;fill-opacity:1;fill-rule:nonzero;stroke:none;stroke-width:0.0352777" />
      <path
         id="path300"
         d="m 136.1949,89.422108 c 0.21873,-0.744361 0.38455,-1.315861 0.57857,-1.989667 -1.0019,-0.46214 -1.88736,-0.87136 -2.89984,-1.340557 -0.2681,0.751417 -0.46214,1.30175 -0.69143,1.943807 1.0795,0.49389 1.97554,0.910167 3.0127,1.386417 z m -1.30879,-12.855223 c -0.11996,-0.09878 -0.24341,-0.197554 -0.36689,-0.299861 -0.88194,0.567973 -1.82386,1.06539 -2.63877,1.718027 -2.21192,1.76389 -2.18723,2.878667 0.0282,4.610807 0.11996,0.09172 0.30692,0.09525 0.56798,0.169333 0.80786,-2.08139 1.60867,-4.138083 2.40948,-6.198306 z M 246.80132,246.92326 c 0.0494,-3.05858 0.23283,-5.99368 0.15171,-9.18985 -0.94192,0.34571 -1.60163,0.5856 -2.26838,0.82902 0,3.01977 0,5.91608 0,8.98525 0.73731,-0.21873 1.31588,-0.38806 2.11667,-0.62442 z M 157.81665,16.696971 c -0.254,1.612194 -0.46918,2.977444 -0.71612,4.536723 1.62629,0.352777 3.16794,0.684387 4.82952,1.044221 0.1129,-1.615721 0.66675,-2.938637 0.32456,-4.339167 -1.47814,-0.41275 -2.86808,-0.800804 -4.43796,-1.241777 z M 246.99182,220.6131 c 0,-3.00567 0,-5.82787 0,-8.78062 -0.52211,0.17285 -0.89252,0.2822 -1.25587,0.41978 -1.34409,0.508 -1.36174,0.51155 -1.33705,1.91207 0.0388,2.02142 0.10231,4.03931 0.17288,6.05718 0.014,0.35632 0.12345,0.70909 0.20812,1.17475 0.81846,-0.28926 1.4958,-0.52916 2.21192,-0.78316 z M 241.53788,85.499218 c 0.97015,-0.68086 1.7004,-1.104194 2.32482,-1.647471 1.49225,-1.30175 1.60866,-2.367139 0.127,-3.654779 -1.25238,-1.090083 -2.76225,-1.88736 -4.1769,-2.786944 -0.21873,-0.14111 -0.54327,-0.119943 -1.01248,-0.211666 0.92781,2.811639 1.78154,5.401026 2.73756,8.30086 z m -104.25289,-0.02117 c 1.28058,-3.862916 2.49766,-7.52122 3.77121,-11.355916 -1.72509,0.218723 -3.00567,0.589139 -3.45371,2.3495 -0.26459,1.030112 -0.78669,1.989666 -1.17475,2.988029 -0.61029,1.562804 -1.2065,3.132667 -1.82738,4.741333 0.39511,0.239887 0.66321,0.437444 0.96309,0.575027 0.508,0.232834 1.03716,0.42686 1.72154,0.702027 z m 114.80096,54.080842 c -1.80975,0.47977 -3.36905,0.89252 -5.04474,1.34054 0.32457,1.97205 0.62794,3.82413 0.95957,5.83142 1.73212,-0.3951 3.24202,-0.73729 4.86833,-1.11125 -0.26458,-2.05317 -0.508,-3.937 -0.78316,-6.06071 z m -4.96713,71.73029 c -0.0705,-3.88054 0.11996,-7.58118 -0.34219,-11.37354 -0.57502,0.18344 -0.94543,0.28575 -1.30527,0.41979 -1.43229,0.5433 -1.42875,0.54682 -1.37938,2.04965 0.0706,1.97202 0.15172,3.94406 0.19757,5.91256 0.0318,1.17475 0.007,2.3495 0.007,3.78529 1.06185,-0.29985 1.84502,-0.51858 2.82221,-0.79375 z m -2.07786,-69.8641 c -1.77448,0.0811 -3.41489,0.54327 -5.24226,0.89252 0.22225,2.00025 0.43037,3.87704 0.6632,5.9549 1.89442,-0.38807 3.61598,-0.74084 5.43983,-1.11125 -0.29633,-1.99319 -0.56443,-3.76767 -0.86077,-5.73617 z m -0.41275,96.41768 c 2.36361,-0.28575 2.37067,-0.29633 2.38832,-2.43416 0.0282,-3.0339 0.06,-6.07132 0.0776,-9.10871 0.014,-1.66513 0.003,-3.33375 0.003,-5.24229 -0.9807,0.40923 -1.7286,0.71966 -2.36712,0.98779 0,2.24012 0,4.28625 0,6.41702 0.50445,-0.1129 0.86429,-0.19404 1.48167,-0.33163 -0.76907,0.62442 -1.64748,0.6985 -1.61222,1.78507 0.0917,2.58233 0.0282,5.17173 0.0282,7.92691 z m 8.3185,-91.53876 c -1.79564,0.36689 -3.33375,0.75493 -4.8401,1.32643 0.40921,2.71288 0.79375,5.24582 1.2065,7.95515 1.59454,-0.38806 2.9845,-0.72673 4.54025,-1.10419 -0.30691,-2.77637 -0.60325,-5.41866 -0.90665,-8.17739 z m -9.63789,110.998 c 0,-1.51342 0.0177,-2.86105 -0.003,-4.20865 -0.0246,-1.36877 0.0882,-2.75167 -0.11642,-4.28977 -1.68981,0.56443 -3.16442,1.05479 -4.48733,1.49577 0,2.87515 0,5.5386 0,8.38906 1.64393,-0.4939 3.02683,-0.91016 4.60727,-1.38641 z m -0.0776,10.0612 c 0,-3.27025 0,-6.29002 0,-9.54262 -1.5875,0.54679 -3.03741,1.0442 -4.37443,1.50283 0,3.22792 0,6.24062 0,9.43679 1.57337,-0.50445 2.9492,-0.94192 4.37443,-1.397 z m -5.48568,-26.52183 c 0.20812,2.88925 0.40568,5.66563 0.62087,8.65364 1.73215,-0.52564 3.30906,-1.00189 4.70255,-1.42523 0,-3.09033 0,-5.92666 0,-8.96053 -1.8415,0.5997 -3.43255,1.11476 -5.32342,1.73212 z m 8.29379,-92.80523 c -1.91204,0.40921 -3.63361,0.77963 -5.461,1.17121 0.28575,2.72698 0.55388,5.28108 0.84314,8.0504 1.98615,-0.41627 3.81707,-0.79727 5.78557,-1.2065 -0.40217,-2.75167 -0.76907,-5.28815 -1.16771,-8.01511 z m -2.71286,-16.83103 c -1.68275,0.64911 -3.18558,1.23119 -4.826,1.86619 0.39865,2.80106 0.78669,5.5492 1.19592,8.44903 1.80623,-0.3175 3.429,-0.60677 5.207,-0.92075 -0.53975,-3.22439 -1.04775,-6.25122 -1.57692,-9.39447 z M 226.9717,73.656468 c 1.08653,5.210529 2.13783,10.25525 3.22085,15.46225 1.10418,-0.254 2.11315,-0.483304 3.21027,-0.733777 -0.0811,-0.419807 -0.127,-0.687917 -0.18696,-0.948973 -0.86431,-3.72886 -1.74273,-7.450667 -2.59291,-11.183054 -0.51155,-2.233083 -0.4939,-2.24014 -2.794,-2.58939 -0.21167,-0.03528 -0.43392,-0.0071 -0.85725,-0.0071 z M 163.33057,312.96326 c 0.26106,2.92807 0.49741,5.588 0.72673,8.1774 2.31423,0.59971 4.91067,0.78317 6.37117,0.46567 -0.4304,-2.74815 -0.86077,-5.49982 -1.30527,-8.32205 -1.92617,-0.10583 -3.71123,-0.2046 -5.79263,-0.32102 z m 72.24889,-110.3136 c 2.38477,-0.69143 4.51202,-1.30881 6.66399,-1.93323 -0.127,-2.82575 -0.2399,-5.42925 -0.36338,-8.19854 -2.33537,0.69496 -4.45911,1.3335 -6.66044,1.98967 0.11994,2.69875 0.23283,5.26344 0.35983,8.1421 z m 5.92667,-44.26656 c 0.27517,3.10798 0.53269,6.05015 0.80433,9.15813 2.15549,-0.59621 4.12399,-1.13596 6.18419,-1.70392 -0.4092,-3.07271 -0.7902,-5.93373 -1.18885,-8.93588 -1.99319,0.508 -3.77473,0.96309 -5.79967,1.48167 z m -54.31718,162.71875 c -0.35984,-2.92452 -0.6844,-5.56684 -1.01955,-8.28675 -2.26483,0.15168 -4.36385,0.28927 -6.65692,0.4445 0.21874,2.85398 0.42334,5.51391 0.64559,8.41375 2.38479,-0.19402 4.59671,-0.37394 7.03088,-0.5715 z m 53.85503,-202.43094 c -1.7427,0.67028 -3.2032,1.22767 -4.64253,1.78153 0.66675,3.89114 1.31233,7.64469 1.98966,11.57817 1.651,-0.52564 3.175,-1.00895 4.83304,-1.53459 -0.73729,-4.00403 -1.43933,-7.80697 -2.18017,-11.82511 z m 1.57692,103.44857 c 0,-2.9845 0,-5.74675 0,-8.71715 -2.40242,0.76906 -4.52967,1.4464 -6.71687,2.1449 0,1.50987 -0.0212,2.91041 0.007,4.31093 0.0246,1.36877 -0.10935,2.75167 0.11642,4.27567 2.33892,-0.7126 4.47675,-1.36877 6.59342,-2.01435 z m -45.66354,97.58185 c 2.6035,-0.4798 5.00592,-0.92075 7.57767,-1.38996 -0.38455,-2.74461 -0.74438,-5.32694 -1.1289,-8.07861 -2.42006,0.43744 -4.65666,0.83961 -7.02381,1.26648 0.1905,2.72344 0.37396,5.33046 0.57504,8.20209 z m -0.84666,0.14816 c -0.34925,-2.78341 -0.67382,-5.37987 -1.01955,-8.14564 -2.39887,0.37041 -4.7131,0.49389 -7.09083,1.06185 0.21166,2.794 0.22931,5.45042 0.85021,8.12096 2.47295,-0.35279 4.74485,-0.67733 7.26017,-1.03717 z m -25.146,-6.45937 c 0.32453,2.95981 0.37745,5.74675 0.92778,8.35025 2.47299,0 4.7484,0 7.19315,0 -0.37393,-2.90688 -0.71615,-5.60563 -1.06891,-8.35025 -2.39536,0 -4.6214,0 -7.05202,0 z M 234.5282,87.859301 c 1.53103,-0.08467 3.95462,-0.91722 5.4751,-1.926167 -0.79727,-2.93511 -1.59102,-5.905499 -2.42007,-8.868833 -0.0811,-0.289277 -0.32102,-0.652637 -0.57853,-0.751416 -1.58399,-0.617361 -3.16797,-1.259417 -4.96007,-1.435804 0.84667,4.42736 1.6651,8.6995 2.48357,12.98222 z M 178.80695,302.24235 c 0.16933,3.14325 0.32808,6.08541 0.50093,9.26748 2.36009,-0.1623 4.50498,-0.31046 6.6675,-0.46215 0.10584,-3.24556 0.2046,-6.29708 0.30692,-9.48973 -2.40594,0.22225 -4.79073,0.44098 -7.47535,0.6844 z m -8.7489,0.06 c 0.24342,3.18558 0.47625,6.23358 0.70202,9.21808 2.49766,0 4.75898,0 7.10141,0 -0.19401,-3.19617 -0.37393,-6.18421 -0.55737,-9.21808 -2.44123,0 -4.67783,0 -7.24606,0 z M 234.53171,183.2575 c 0.22932,3.41841 0.44802,6.69218 0.68086,10.16352 2.31775,-0.61736 4.41679,-1.17475 6.63929,-1.7639 -0.18698,-3.43604 -0.36338,-6.731 -0.54681,-10.20937 -2.30717,0.61383 -4.40973,1.17827 -6.77334,1.80975 z m 15.3035,-5.34813 c -0.43391,-3.83821 -0.69143,-7.45067 -1.33701,-11.10896 -2.16959,0.69496 -4.1275,1.32644 -6.11013,1.96144 0.25754,3.72885 0.50448,7.2884 0.762,11.0349 2.34246,-0.66323 4.43441,-1.25238 6.68514,-1.88738 z m -7.16843,34.75921 c -0.14465,-3.7818 -0.27871,-7.34131 -0.42333,-11.10546 -2.34599,0.77258 -4.45913,1.46756 -6.69222,2.20133 0.1129,3.58775 0.22225,7.10142 0.33515,10.80207 2.30365,-0.64559 4.445,-1.24532 6.7804,-1.89794 z m -2.13783,-43.42342 c -2.49767,0.62442 -4.71665,1.18179 -7.04499,1.76742 0.34574,3.71121 0.6844,7.3166 1.03011,11.04546 2.37066,-0.62442 4.52614,-1.19238 6.731,-1.77446 -0.23987,-3.71829 -0.46919,-7.24254 -0.71612,-11.03842 z m -5.97607,138.24302 c 0.31398,-0.14465 0.6491,-0.32104 0.99835,-0.45508 2.73757,-1.0513 5.46807,-2.11315 8.21973,-3.11857 0.85019,-0.31043 1.28765,-0.73731 1.2559,-1.70743 -0.0388,-1.06892 0.0917,-2.14138 0.15169,-3.2103 0.0423,-0.80785 0.0882,-1.6157 0.13052,-2.43062 -0.32454,0 -0.44802,-0.0388 -0.53621,0.003 -2.94923,1.40052 -5.88433,2.83282 -8.85121,4.19807 -0.66675,0.30337 -0.889,0.77258 -1.0442,1.40051 -0.46567,1.91911 -0.9525,3.82765 -1.4464,5.73969 -0.1905,0.7338 -0.40923,1.46405 -0.65617,2.34246 0.65265,-0.15171 1.0654,-0.24696 1.67569,-0.38806 -0.89252,0.84315 -2.50825,0.8396 -2.16959,2.62466 3.83823,-1.50989 7.55298,-2.99156 11.28538,-4.42383 0.81137,-0.31043 1.17475,-0.78668 1.10771,-1.64042 -0.0317,-0.42685 -0.003,-0.85725 -0.003,-1.36525 -2.35302,0.95602 -4.58259,1.88032 -6.82625,2.75874 -0.67734,0.26458 -1.397,0.45153 -2.11315,0.58208 -0.58208,0.10229 -1.15358,0.007 -1.17827,-0.91017 z m 6.2724,-218.997386 c -3.59833,1.114777 -6.94267,2.148417 -10.34698,3.203223 0.64558,3.39725 0.89606,6.741584 1.76741,10.061223 1.80624,-0.42334 3.41842,-0.79728 5.15057,-1.20297 -0.3528,-1.710976 -0.6703,-3.185586 -0.9525,-4.667253 -0.27517,-1.449916 -0.74438,-2.87514 -0.5715,-4.39914 1.39345,2.7305 1.78504,5.79614 2.92804,8.748893 1.64041,-0.52917 3.16796,-1.019532 4.84013,-1.559282 -0.95957,-3.474861 -1.86974,-6.766277 -2.81517,-10.184694 z M 252.0189,139.1285 c -1.79562,-13.58195 -4.31094,-26.80406 -8.27262,-39.856836 -1.73215,0.684387 -3.27025,1.294696 -4.85071,1.922636 0.61383,2.49767 1.18533,4.83306 1.78154,7.25311 1.0301,-0.32808 1.905,-0.60678 2.77987,-0.88547 0.0282,0.0811 0.06,0.15875 0.0917,0.23989 -0.87135,0.47978 -1.74273,0.95603 -2.71285,1.48872 0.56444,2.61761 1.11477,5.17525 1.70744,7.92339 1.53106,-0.62089 2.86102,-1.15711 4.191,-1.69686 0.0318,0.0705 0.0635,0.14464 0.0917,0.21519 -1.35821,0.75847 -2.7164,1.52047 -4.0993,2.29659 0.78672,3.89466 1.55223,7.6835 2.3354,11.54641 0.49742,-0.11994 0.86077,-0.20814 1.50635,-0.36336 -0.59618,0.49036 -0.9666,0.79022 -1.397,1.143 0.58915,3.25967 1.17475,6.49817 1.79213,9.91659 1.80621,-0.40923 3.36902,-0.762 5.05529,-1.143 z m -47.08877,178.99943 c 6.6816,-1.07244 22.88469,-5.24581 26.2114,-7.26723 0.25045,-2.7305 0.508,-5.51392 0.78668,-8.54779 -9.27451,3.13619 -18.41148,5.76085 -27.90824,7.77875 0.30691,2.71637 0.59973,5.31283 0.91016,8.03627 z m 28.5891,-28.03525 c -15.21883,4.55083 -30.23303,8.70656 -45.75526,11.2536 -0.0388,3.13621 -0.16582,6.20538 0.13758,9.51442 2.43417,-0.32102 4.6849,-0.61383 6.9709,-0.91369 0,-1.43227 -0.0459,-2.667 0.014,-3.89466 0.06,-1.22767 -0.16227,-2.51532 0.62794,-3.65832 0.70908,2.36363 0.53271,4.82248 0.81139,7.34484 2.44123,-0.44096 4.69548,-0.84667 6.95325,-1.25236 0.0635,-1.18885 0.11994,-2.19075 0.1764,-3.19616 0.13052,0.003 0.25752,0.003 0.38804,0.003 0.0776,0.97014 0.15171,1.94029 0.23638,3.04096 9.61318,-1.9403 18.93358,-4.4309 28.07403,-7.57063 0.45863,-3.57362 0.89255,-6.97442 1.36525,-10.67152 z M 138.93953,86.063664 c 0.57502,0.208137 1.09008,0.41275 1.61571,0.578554 4.84716,1.545166 9.82487,2.518833 14.84489,3.277306 11.67694,1.76036 23.4456,2.416527 35.23898,2.578807 11.2395,0.15522 22.43667,-0.515057 33.55621,-2.24014 1.53106,-0.23989 3.048,-0.550333 4.48029,-0.81139 0.0564,-0.370417 0.10936,-0.486833 0.0847,-0.589137 -1.11125,-4.945946 -2.23663,-9.89189 -3.3373,-14.841363 -0.13758,-0.627943 -0.39862,-1.019527 -1.07243,-1.09361 -0.39158,-0.04233 -0.76907,-0.17286 -1.1571,-0.243417 -10.96434,-1.961443 -22.0345,-2.80811 -33.15407,-3.069166 -10.84085,-0.257527 -21.66408,0.05997 -32.43085,1.386416 -4.35681,0.536224 -8.67481,1.418167 -13.01046,2.12725 -0.91017,0.148167 -1.49577,0.536223 -1.81327,1.488723 -1.143,3.418417 -2.37419,6.812138 -3.55952,10.216444 -0.12348,0.36336 -0.1764,0.751417 -0.28575,1.234723 z M 245.22088,285.42895 c 0.64558,-0.48683 0.76907,-1.1571 0.78317,-1.92262 0.0423,-2.36009 0.1411,-4.71665 0.2046,-7.07673 0.0106,-0.30692 -0.0635,-0.61736 -0.11287,-1.07244 -2.47298,0.98777 -4.81542,1.88383 -7.11907,2.88219 -0.34573,0.15168 -0.63148,0.74435 -0.70201,1.17475 -0.1905,1.16064 -0.24342,2.34243 -0.3669,3.51718 -0.15875,1.54517 -0.3316,3.09034 -0.52565,4.8613 0.80433,-0.24342 1.3829,-0.4163 1.95792,-0.59267 1.97556,-0.60325 3.95464,-1.21004 5.93021,-1.81329 -2.20133,0.9525 -4.3674,1.98966 -6.61107,2.82223 -1.10066,0.40923 -1.59101,0.97718 -1.74273,2.12018 -0.36687,2.72698 -0.86077,5.43632 -1.28762,8.15623 -0.0494,0.30692 -0.007,0.63148 -0.007,1.07598 3.41842,-1.2065 6.67102,-2.40241 9.78958,-4.16279 0.127,-2.99154 0.25752,-5.96546 0.37748,-8.93585 0.0177,-0.44802 0.06,-0.93486 -0.56798,-1.03365 z m 0.635,-28.76902 c 0.5715,-0.3951 0.91723,-0.84667 0.9031,-1.63335 -0.0423,-2.1308 0.0246,-4.26157 0.0317,-6.39233 0,-0.29634 -0.10228,-0.59622 -0.17991,-1.02659 -0.91369,0.3951 -2.08844,0.20812 -2.12371,1.45344 -0.0741,2.56116 -0.0246,5.12585 -0.0246,7.72583 0.46566,-0.0529 0.9525,-0.10583 1.43581,-0.16227 -0.51152,0.30692 -1.02658,0.61384 -1.651,0.98777 -0.12348,3.07623 -0.254,6.19125 -0.381,9.3345 0.73025,-0.0564 1.21357,-0.0953 1.7004,-0.13052 -0.61383,0.36687 -1.23121,0.73025 -1.8133,1.0795 -0.0776,1.61219 -0.15168,3.14325 -0.22577,4.67429 -0.0917,0 -0.17991,0 -0.2681,-0.003 0,-0.71967 0,-1.44285 0,-2.16606 0,-0.71613 0,-1.43579 0,-2.11667 -0.26106,-0.06 -0.381,-0.127 -0.47273,-0.0988 -0.37393,0.1129 -0.74435,0.25048 -1.11477,0.38806 -2.89279,1.0795 -2.91041,1.0795 -3.01625,4.21217 -0.0494,1.43579 -0.0106,2.87512 -0.0106,4.53319 2.65287,-0.96309 5.16818,-1.87325 7.67291,-2.78342 0.0353,-2.71992 0.1905,-5.22817 0.10936,-7.78227 -0.4586,0.0494 -0.67734,0.0741 -0.889,0.0882 0.27516,-0.50448 1.00541,-0.60325 1.00541,-1.41111 -0.003,-2.67406 0.0847,-5.34812 0.16227,-8.02571 0.0177,-0.64558 -0.40568,-0.68437 -0.85018,-0.74435 z M 256.51682,144.78 c -0.41627,0.2681 -0.82902,0.53623 -1.34761,0.87135 2.7305,23.37506 3.54894,46.863 2.82224,70.43208 -0.11642,-1.21354 -0.28224,-2.43062 -0.34222,-3.6477 -0.3951,-8.2268 -0.75141,-16.45709 -1.16416,-24.68388 -0.16579,-3.3796 -0.43392,-6.75569 -0.65969,-10.13177 -0.0388,-0.55033 0.0494,-1.1924 -0.79375,-1.22415 0.73732,-0.5221 0.58915,-1.28762 0.52917,-2.00729 -0.48684,-5.94783 -0.98073,-11.89566 -1.48873,-17.8435 -0.0423,-0.52916 -0.20109,-1.04775 -0.32454,-1.66512 -1.53813,0.51858 -2.90338,0.98073 -4.35682,1.47108 0.39865,2.98804 0.77965,5.85613 1.17827,8.84415 1.03365,-0.28223 1.8768,-0.51152 2.71992,-0.74084 0.0353,0.0847 0.0706,0.16934 0.10231,0.25752 -0.87489,0.43392 -1.74976,0.86784 -2.72698,1.35115 0.40923,3.6689 0.81492,7.28485 1.23473,11.049 1.15711,-0.27869 2.16959,-0.5221 3.18207,-0.762 -0.97015,0.52565 -1.9403,1.05127 -3.0339,1.64394 2.86102,34.39583 3.3796,68.81283 -1.5099,103.12751 -0.11287,-0.003 -0.22577,-0.007 -0.33866,-0.0106 0.20814,-2.33537 0.41275,-4.67429 0.62089,-7.00969 0.78669,-8.82298 1.21357,-17.66358 1.38994,-26.51476 0.014,-0.56447 0.0212,-1.13242 -0.0494,-1.6863 -0.014,-0.11994 -0.37396,-0.19402 -0.57505,-0.28927 0.86784,-0.76552 0.79375,-1.81327 0.78672,-2.81165 -0.06,-10.09295 -0.0177,-20.19297 -0.24697,-30.28243 -0.15875,-7.04496 -0.69143,-14.07935 -1.06537,-21.12079 -0.0317,-0.56092 -0.13054,-1.11831 -0.19756,-1.67923 -0.0706,-0.60325 -0.51152,-0.4586 -0.889,-0.4445 0.52916,-0.51507 0.889,-1.02658 0.79023,-1.87325 -0.29988,-2.57527 -0.48332,-5.16467 -0.74083,-7.747 -0.0282,-0.29985 -0.21874,-0.58208 -0.34925,-0.9031 -2.17665,0.71966 -4.24747,1.40404 -6.4629,2.13429 0.1764,3.36198 0.34925,6.65339 0.53268,10.14589 0.94547,-0.26106 1.68982,-0.46215 2.43417,-0.67381 1.28413,-0.37394 2.56471,-0.75494 3.8453,-1.13242 -2.07082,0.94546 -4.14515,1.88738 -6.26182,2.85398 0.10935,2.63173 0.21519,5.24227 0.3316,8.05392 1.02307,-0.34925 1.80272,-0.61383 2.67055,-0.90665 0,-1.25235 0,-2.44827 0,-3.64418 0.34925,1.11125 0.0529,2.33891 0.7761,3.34081 0.70908,-0.20815 1.3194,-0.38455 1.93323,-0.56092 0.0177,0.06 0.0353,0.11994 0.0529,0.17992 -0.6844,0.35983 -1.37232,0.71967 -2.0814,1.0936 0.32808,3.91935 0.7479,7.75052 0.9384,11.59227 0.19402,3.87705 0.17637,7.76465 0.2187,11.64873 0.0423,3.89467 -0.0318,7.78934 0.0776,11.67694 0.10935,3.82058 -0.22225,7.64823 0.0564,11.56406 0.7761,-0.15523 1.42523,-0.28575 2.07433,-0.41629 -0.67381,0.381 -1.3476,0.75848 -2.16252,1.22063 -0.20463,8.78062 -0.40923,17.64241 -0.61738,26.70174 0.67734,-0.25048 1.13242,-0.41629 1.73215,-0.63854 -0.1411,0.20108 -0.18698,0.35631 -0.28223,0.39158 -1.35467,0.53623 -1.651,1.59809 -1.70392,2.95275 -0.20812,5.2423 -0.52916,10.48105 -0.75493,15.72332 -0.0317,0.79727 -0.22932,1.57691 0.0812,2.45181 0.21518,0.59619 -0.32105,1.43933 -0.4445,2.18721 -0.13407,0.83256 -0.1764,1.67923 -0.26813,2.52237 -0.0811,0.78317 -0.18344,1.56634 -0.25046,2.35302 -0.0353,0.38452 -0.007,0.77965 -0.007,1.397 0.94192,-0.32102 1.80268,-0.61735 2.65993,-0.91016 0.0423,0.0776 0.0882,0.15168 0.13055,0.22931 -0.53271,0.35629 -1.02658,0.80785 -1.60515,1.05127 -1.70391,0.71615 -1.8274,2.0461 -1.56985,3.7959 2.09902,-0.95605 4.0781,-1.85915 6.35352,-2.89984 -0.40569,0.96661 -0.94192,1.50284 -1.54517,1.90146 -1.2206,0.80788 -2.45181,1.62631 -3.77118,2.24721 -1.1924,0.55737 -1.95792,1.24177 -1.85915,2.64583 0.0212,0.3175 -0.0741,0.64204 -0.15169,1.25236 2.51529,-1.04775 4.73779,-2.13432 6.81919,-3.52073 0.0776,0.0847 0.15168,0.16933 0.22931,0.254 -0.508,0.53975 -0.94546,1.18533 -1.54164,1.60162 -1.29117,0.89959 -2.58586,1.87325 -4.02519,2.46238 -1.85563,0.762 -2.28955,2.08139 -2.2084,4.07458 2.67759,-1.16769 5.09059,-2.52235 7.47184,-4.28625 0.0177,0.89958 -0.46215,1.38996 -0.96661,1.76742 -1.26296,0.93839 -2.52589,1.90854 -3.89114,2.67758 -5.86317,3.30906 -12.07207,5.83848 -18.42559,8.02923 -5.07648,1.74977 -10.2376,3.1609 -15.57515,3.81352 -1.67216,0.20463 -3.37608,0.16933 -5.06587,0.16581 -0.99483,0 -1.20298,-0.14816 -2.12373,-0.83256 1.71802,-0.11287 3.39725,-0.10583 5.03767,-0.35277 6.43818,-0.97015 12.66118,-2.78342 18.75718,-5.02002 4.8119,-1.76742 9.5603,-3.69713 14.35807,-5.56331 0.0635,-1.10773 0.1129,-2.032 0.1764,-3.13973 -0.7973,0.32104 -1.36525,0.54329 -1.92265,0.77964 -5.81732,2.4765 -11.74398,4.64609 -17.88935,6.16302 -1.35467,0.33163 -2.77638,0.40571 -4.1769,0.51859 -0.45508,0.0388 -0.93133,-0.17638 -1.37935,-0.37394 8.25852,-1.66865 15.90675,-4.99885 23.66433,-7.99748 0.62794,-0.24342 1.2347,-0.53621 1.92617,-0.8396 0.10935,-0.94192 0.21518,-1.86619 0.34218,-2.99157 -0.85725,0.33163 -1.48518,0.56092 -2.10256,0.81492 -4.58962,1.8909 -9.24277,3.60892 -14.07935,4.76604 -1.12536,0.26811 -2.26484,0.45154 -3.66184,-0.0459 1.21709,-1.016 2.56823,-0.75494 3.62657,-1.30879 1.016,-0.52917 2.53645,-0.27871 2.9986,-2.11315 -2.32833,0.63148 -4.28977,1.68981 -6.39233,2.34244 -2.15194,0.67381 -4.28274,1.41112 -6.44174,2.05671 -2.10608,0.62793 -4.22978,1.19943 -6.35703,1.74977 -2.17665,0.56798 -4.3674,1.0795 -6.58284,1.62277 -0.0282,0.39864 -0.0529,0.73025 -0.0847,1.22414 -0.10584,-0.25752 -0.11997,-0.43743 -0.21167,-0.49741 -0.2893,-0.19402 -0.64206,-0.52565 -0.91371,-0.47625 -2.27187,0.38452 -4.52967,0.84314 -6.9991,1.32291 0.0882,1.49932 0.17285,2.92452 0.254,4.35327 -0.06,0.014 -0.11994,0.0282 -0.17992,0.0423 -0.30692,-1.38994 -0.61383,-2.77988 -0.94192,-4.2545 -2.49766,0.36689 -4.87539,0.71614 -7.48948,1.10066 0.34221,1.83446 0.66675,3.57013 1.04071,5.55625 -1.32646,-1.63687 -1.61925,-3.46779 -2.30364,-5.38337 -2.286,0.18696 -4.61434,0.37394 -7.20019,0.58208 0.19754,1.90852 0.381,3.70063 0.56444,5.49275 -0.0917,0.0177 -0.18698,0.0353 -0.27869,0.0564 -0.4304,-1.78858 -0.86079,-3.57365 -1.29471,-5.37281 -2.46944,0 -4.87185,0 -7.36246,0 0.19754,1.41464 0.381,2.71991 0.56444,4.02521 -0.10231,0.0282 -0.20815,0.0564 -0.31044,0.0847 -0.47625,-1.35821 -0.9525,-2.71639 -1.48521,-4.23333 -2.07079,-0.27871 -4.2192,-0.56446 -6.57929,-0.88196 0.27517,1.94733 0.53621,3.75708 0.83609,5.87023 -1.1783,-2.05317 -1.32292,-4.13808 -1.97909,-6.12069 -1.35821,-0.48683 -2.74814,-0.98425 -4.13808,-1.48166 0.0318,-0.10584 0.067,-0.20815 0.10229,-0.31046 1.18888,0.23989 2.38125,0.47979 3.83117,0.77258 -0.42334,-2.85044 -0.81492,-5.48921 -1.22413,-8.23029 -2.26131,-0.34925 -4.46616,-0.68792 -6.88975,-1.06188 0.58561,4.20159 1.18886,8.22325 2.11313,12.20259 -1.82386,-3.90171 -2.27188,-8.15975 -3.19969,-12.38954 -2.51883,-0.71967 -5.04825,-1.43934 -7.81402,-2.22957 -0.0494,2.84692 0.80079,5.4469 1.29469,8.18444 -1.15007,-1.84502 -1.72509,-4.06752 -3.02332,-13.02102 -0.64558,-4.45558 -1.08654,-8.94644 -1.53458,-13.43025 -0.59971,-6.05015 -0.28575,-11.70517 0.73379,-13.64544 -0.46921,10.55863 1.02659,20.79625 2.24719,31.18909 2.61056,0.58208 5.10469,1.13593 7.87048,1.74977 -0.89606,-7.38365 -2.38831,-14.43919 -1.59456,-21.62175 0.12348,-0.007 0.24693,-0.0177 0.37041,-0.0282 0.10936,1.69333 0.15523,3.39021 0.33867,5.07296 0.57502,5.26343 1.2065,10.51983 1.80975,15.78327 0.0635,0.56798 0.29985,0.97014 0.9031,1.04423 1.99673,0.23987 3.99698,0.4727 6.21242,0.73377 -0.18696,-2.29659 -0.43744,-4.35327 -0.50446,-6.4135 -0.127,-3.94407 -0.16581,-7.89165 -0.20462,-11.83569 -0.007,-0.70204 0.0917,-1.43581 0.91016,-2.11315 0.71263,3.51367 0.32457,6.90034 0.6844,10.23057 0.3669,3.34785 0.5856,6.71335 0.87842,10.21643 1.90852,0.0988 3.68652,0.18698 5.70441,0.28927 -0.16227,-3.24554 -0.29985,-6.31118 -0.48683,-9.37329 -0.0177,-0.28223 -0.33515,-0.54681 -0.42333,-0.67733 0.17639,-0.55388 0.41275,-1.00896 0.45156,-1.48167 0.0882,-1.06891 0.0423,-2.14489 0.127,-3.21381 0.0423,-0.58915 0.23635,-1.16769 0.40921,-1.97202 1.18533,0.96308 0.81491,2.08137 0.92075,3.0621 0.10583,1.00542 0.18346,2.0179 0.27871,3.07975 2.3636,0 4.70252,0 7.13668,0 0.23284,-1.37583 0.44098,-2.61056 0.71261,-4.20864 0.98779,1.43581 0.36337,2.78341 0.95956,4.04283 2.37773,-0.28575 4.78719,-0.50094 7.16844,-0.87487 15.62454,-2.45182 30.88216,-6.48759 46.09041,-10.73505 1.44288,-0.40216 1.43582,-0.42333 1.60163,-1.95437 0.19402,-1.84856 0.39862,-3.70065 0.58208,-5.55273 0.06,-0.60325 0.0741,-1.21356 0.11994,-2.01435 -0.72319,0.20812 -1.2559,0.3457 -1.778,0.51504 -10.41752,3.36198 -20.95852,6.24771 -31.7359,8.21621 -9.2851,1.69685 -18.6337,2.7587 -28.09168,2.50825 -1.38642,-0.0388 -2.76932,-0.23638 -4.15573,-0.52917 22.63071,-0.21521 44.35474,-5.22465 65.93771,-11.95917 0.18695,-2.50473 0.36687,-4.93889 0.56443,-7.62 -0.86783,0.26459 -1.44991,0.43744 -2.02848,0.62088 -11.92035,3.83823 -23.95712,7.23548 -36.27967,9.53912 -4.93887,0.92075 -9.9201,1.53104 -14.9507,1.62277 -1.40758,0.0282 -2.81871,-0.06 -4.22629,-0.15875 -0.58913,-0.0388 -1.17121,-0.23989 -1.71802,-0.67027 1.78152,0 3.56306,0.0811 5.33752,-0.014 8.08214,-0.43743 16.01612,-1.89793 23.83721,-3.87702 9.50383,-2.40593 18.94416,-5.06235 28.40918,-7.6341 1.69334,-0.45863 1.7004,-0.50096 1.778,-2.30717 0.10584,-2.47298 0.17992,-4.94241 0.27517,-7.66587 -0.66675,0.16581 -1.18885,0.27164 -1.69333,0.42687 -9.75784,2.99154 -19.60386,5.64444 -29.59807,7.73642 -5.75379,1.19944 -11.56758,1.97554 -17.44133,2.12725 -2.13429,0.0564 -4.27919,-0.17992 -6.4135,-0.31046 -0.37746,-0.0212 -0.74787,-0.17992 -1.13594,-0.58912 0.4939,0 0.98777,-0.0282 1.48167,0.007 4.98123,0.33515 9.92717,-0.13052 14.83431,-0.87135 13.23621,-1.98967 26.11612,-5.56683 39.00311,-9.08402 0.32101,-0.0882 0.62089,-0.254 1.02658,-0.42333 0.13052,-2.67407 0.26106,-5.36223 0.40217,-8.27617 -0.75849,0.2187 -1.33702,0.381 -1.91207,0.55385 -9.61318,2.89984 -19.29342,5.51392 -29.17118,7.35894 -4.55084,0.84666 -9.13694,1.42171 -13.77244,1.51696 -0.67029,0.014 -1.34763,-0.0847 -2.0179,-0.15523 -0.20108,-0.0212 -0.3951,-0.13052 -0.58914,-0.32102 16.29129,-1.18181 31.86289,-5.59506 47.40629,-9.93775 0.29279,-3.06213 0.56444,-5.91608 0.85725,-8.98173 -0.45863,0.11642 -0.96663,0.22225 -1.46405,0.37393 -8.51251,2.62822 -17.0956,4.99182 -25.8586,6.6534 -5.77143,1.0936 -11.58523,1.8274 -17.48366,1.54165 -0.19757,-0.0106 -0.39159,-0.06 -0.61032,-0.30692 0.52917,-0.0952 1.05834,-0.25048 1.59457,-0.27516 9.80368,-0.40217 19.34633,-2.36715 28.80076,-4.81897 6.60049,-1.71095 13.15509,-3.59126 19.72734,-5.40453 0.42688,-0.11997 0.83963,-0.29634 1.30175,-0.46215 0,-2.83985 0,-5.64444 0,-8.6854 -0.82196,0.3034 -1.49225,0.5433 -2.15546,0.7973 -10.43516,3.98991 -21.06083,7.37303 -31.97225,9.81427 -4.79779,1.07598 -9.652,1.76741 -14.59441,1.38641 -0.6209,-0.0459 -1.23473,-0.12348 -1.85209,-0.2046 -0.0953,-0.014 -0.17639,-0.11642 -0.35983,-0.2399 0.33867,-0.0564 0.59971,-0.1411 0.85725,-0.13758 6.94267,0.0952 13.68425,-1.18533 20.36233,-2.921 9.38742,-2.44123 18.669,-5.23169 27.84121,-8.37494 0.58208,-0.19756 1.15006,-0.43039 1.72863,-0.64912 0,-2.13429 0,-4.18394 0,-6.50169 -2.41655,0.83256 -4.62847,1.59808 -6.94267,2.39538 0,1.55575 0,3.07268 0,4.5861 -0.0988,0 -0.19756,0.003 -0.29633,0.007 0,-1.39345 0,-2.78693 0,-4.43793 -0.78317,0.21167 -1.35822,0.34925 -1.91913,0.52213 -6.30412,1.95791 -12.67884,3.64418 -19.18404,4.78012 -3.7818,0.65968 -7.59531,1.0936 -11.44765,0.68085 -0.8114,-0.0847 -1.60515,-0.31043 -2.40948,-0.46918 0.007,-0.11994 0.014,-0.2399 0.0212,-0.35984 0.34221,0 0.68791,-0.0106 1.03013,0.003 5.73616,0.23283 11.37708,-0.5221 16.93333,-1.84502 5.09762,-1.21354 10.16,-2.58585 15.23294,-3.89112 0.49035,-0.127 0.9666,-0.29988 1.55926,-0.48683 0.22225,-2.74815 0.0917,-5.48217 -0.23635,-8.37142 -0.4586,0.0811 -0.8749,0.127 -1.28058,0.22577 -6.72748,1.6651 -13.43377,3.41135 -20.18594,4.98123 -3.79589,0.88546 -7.6835,1.22412 -11.59581,1.07596 -1.08302,-0.0388 -2.20485,-0.0423 -3.15383,-0.80786 0.6491,0 1.29823,-0.0106 1.94381,0 4.88244,0.10232 9.6802,-0.60325 14.4145,-1.69333 6.58635,-1.52048 13.14802,-3.15735 19.6215,-4.71665 0.3951,-1.4605 0.2187,-8.40316 -0.24342,-10.91845 -0.59266,0.1552 -1.17829,0.29279 -1.75683,0.4586 -6.72042,1.92969 -13.48671,3.71475 -20.40467,4.75898 -3.33375,0.50446 -6.72748,0.68792 -10.10356,0.8255 -1.58044,0.067 -3.25615,-0.003 -4.92477,-1.23121 1.51342,0.12348 2.70579,0.29988 3.90525,0.30692 4.36033,0.0317 8.68185,-0.47271 12.92577,-1.40759 6.4911,-1.42875 12.9399,-3.06562 19.40631,-4.61785 0.3175,-0.0776 0.62442,-0.2046 1.07244,-0.35631 -0.12348,-2.61409 -0.24694,-5.18229 -0.381,-7.97629 -0.64558,0.12345 -1.17123,0.21167 -1.68982,0.32454 -6.28295,1.34056 -12.54828,2.77638 -18.85243,3.99346 -4.10282,0.79375 -8.28675,1.04068 -12.47069,0.84667 -1.14654,-0.0529 -2.28248,-0.34925 -3.42196,-0.53272 0.0177,-0.127 0.0353,-0.25752 0.0529,-0.38452 0.97015,0.06 1.94029,0.16582 2.91396,0.16934 4.63902,0.0246 9.24629,-0.46567 13.78302,-1.3476 6.25123,-1.21357 12.45658,-2.6529 18.67958,-4.0005 0.2681,-0.06 0.51859,-0.20109 0.92782,-0.3669 -0.18698,-3.24202 -0.37397,-6.48759 -0.57505,-9.9554 -0.71612,0.14113 -1.30175,0.23638 -1.87325,0.37748 -6.62868,1.62277 -13.26795,3.2244 -20.05542,4.00757 -3.68651,0.42685 -7.41537,0.56091 -11.13366,0.70201 -1.67569,0.0635 -3.35137,-0.21166 -4.78367,-1.37231 0.32809,0.06 0.65617,0.14465 0.9878,0.16933 1.6792,0.12348 3.37253,0.40572 5.04118,0.3175 8.3044,-0.43743 16.44298,-1.99318 24.53923,-3.79941 2.30717,-0.51504 4.60021,-1.0795 6.858,-1.61219 0.36336,-1.778 -0.0177,-7.90575 -0.68439,-11.1125 -2.28952,0.49742 -4.57907,1.016 -6.87565,1.49225 -7.06967,1.46757 -14.17109,2.77635 -21.3995,3.1256 -2.52587,0.11997 -5.06587,-0.0741 -7.59529,-0.17285 -0.52917,-0.0212 -1.04775,-0.26106 -1.55929,-0.5715 6.31121,0.0847 12.51656,-0.69498 18.69016,-1.72156 6.21948,-1.03717 12.41425,-2.24012 18.69017,-3.38667 -0.0776,-1.72508 -0.1411,-3.22085 -0.20812,-4.71662 0.067,-0.0106 0.13052,-0.0246 0.19402,-0.0353 0.21873,1.42172 0.43743,2.8434 0.68439,4.46265 2.36361,-0.55033 4.60021,-1.07243 6.7945,-1.58398 0.32454,-1.44637 0.0246,-6.65337 -0.52916,-9.13694 -0.45509,0.0494 -0.93488,0.0635 -1.40407,0.15169 -7.14375,1.3688 -14.26281,2.84692 -21.42773,4.09223 -5.50333,0.95602 -11.0772,1.41465 -16.67227,1.36877 -1.5099,-0.0106 -3.02331,-0.29633 -4.52614,-0.48683 -0.31044,-0.0423 -0.60325,-0.22929 -0.889,-0.57854 0.22579,-0.0212 0.45508,-0.0776 0.68087,-0.06 7.08729,0.5221 14.07936,-0.46567 21.03612,-1.55223 7.239,-1.12887 14.42509,-2.59292 21.63234,-3.91936 0.49038,-0.0917 0.96663,-0.25751 1.60866,-0.43391 -0.24693,-2.6529 -0.48683,-5.26698 -0.73728,-7.98335 -12.9399,2.159 -25.73163,4.23333 -38.74913,4.12395 -0.26459,-0.003 -0.52562,-0.13404 -0.78669,-0.31044 13.1445,-0.99131 26.22198,-2.37066 39.37352,-4.80835 -0.0635,-1.02306 -0.0953,-1.96146 -0.18343,-2.89631 -0.0882,-0.94898 -0.23284,-1.8909 -0.381,-3.07623 -1.64749,0.21166 -3.2385,0.42688 -4.82952,0.62441 -10.5269,1.28765 -21.06084,2.50473 -31.69005,2.39184 -1.4111,-0.014 -2.81868,-0.11287 -4.22275,-0.22225 -0.66675,-0.0529 -1.31937,-0.22225 -2.00025,-0.34571 4.69196,-0.0953 9.35921,-0.0565 14.00882,-0.3175 4.78014,-0.26458 9.54968,-0.78316 14.31573,-1.26648 4.70603,-0.47625 9.40152,-1.04423 14.27691,-1.59456 -0.0459,-2.88571 -0.55388,-5.52097 -0.86783,-8.31497 -0.55388,0.11995 -0.98425,0.19403 -1.40406,0.30692 -6.73807,1.78858 -13.60311,2.72344 -20.55636,2.90336 -2.18371,0.0564 -4.39208,-0.21519 -6.56521,-0.51153 -1.37229,-0.1905 -2.74108,-0.63852 -3.78529,-2.20839 0.53975,0.16934 0.81492,0.22225 1.05479,0.33867 2.09905,1.01247 4.37446,1.15006 6.61813,1.11478 3.15029,-0.0565 6.32529,-0.17992 9.44737,-0.58914 4.63198,-0.61383 9.23221,-1.49931 13.843,-2.27894 0.32457,-0.0564 0.64207,-0.17639 1.1289,-0.31398 -0.24342,-3.83116 -0.78317,-7.58825 -1.4111,-11.5323 -0.67382,0.18344 -1.24884,0.32808 -1.8133,0.49741 -6.71335,2.01789 -13.5255,3.556 -20.52812,4.0887 -2.07788,0.15875 -4.17338,0.13405 -6.2583,0.0635 -0.91368,-0.0318 -1.81678,-0.38806 -2.71285,-0.7867 10.64684,0.14817 20.78567,-2.49413 31.0374,-5.08352 -0.10583,-0.85725 -0.19405,-1.56634 -0.28223,-2.27189 0.0776,-0.0282 0.15168,-0.0564 0.22577,-0.0847 0.28223,0.62089 0.56446,1.24178 0.93488,2.0567 1.49225,-0.44098 2.98095,-0.87842 4.6496,-1.37231 -0.32808,-2.72697 -0.8749,-5.32694 -1.48519,-7.92692 -3.00214,0.83961 -5.84554,1.73567 -8.73831,2.42711 -8.02217,1.91206 -16.14665,3.19264 -24.40517,3.4925 -2.36008,0.0882 -4.71665,0.0176 -7.01675,-0.89605 1.27352,0 2.55059,0.0282 3.8241,-0.007 1.35115,-0.0388 2.70582,-0.11289 4.05342,-0.21519 1.34763,-0.10231 2.69523,-0.25753 4.03932,-0.40217 1.34408,-0.14464 2.68816,-0.2928 4.03225,-0.46919 1.34056,-0.17286 2.67758,-0.37042 4.0146,-0.57856 1.33704,-0.20814 2.67054,-0.43039 4.00404,-0.66322 1.3335,-0.23283 2.667,-0.46919 3.99344,-0.73378 1.32643,-0.26458 2.64583,-0.56091 3.96875,-0.85372 1.3194,-0.29281 2.64231,-0.57503 3.95465,-0.90664 1.30175,-0.32808 2.59291,-0.70908 4.05341,-1.11478 -0.30691,-2.53647 -0.89958,-4.91066 -1.48521,-7.51769 -6.66395,1.88383 -13.3632,3.00567 -20.10833,3.83117 -6.6816,0.81491 -13.36321,1.95086 -20.13302,0.73025 3.75002,-0.2787 7.5071,-0.48684 11.24656,-0.85373 3.86996,-0.38452 7.73287,-0.86077 11.58521,-1.41111 3.78531,-0.53622 7.54946,-1.21708 11.53583,-1.86619 -0.7761,-3.446639 -1.50283,-6.667499 -2.27187,-10.071806 -0.57856,0.05644 -1.12538,0.0635 -1.651,0.169334 -7.76817,1.545166 -15.63865,2.183693 -23.5303,2.582333 -8.62893,0.433917 -17.26493,0.515056 -25.89387,0.01765 -12.58358,-0.723197 -25.06133,-2.159 -37.20748,-5.739696 -0.91016,-0.268111 -1.81681,-0.564444 -2.87866,-0.899584 -0.24342,0.613834 -0.45861,1.164167 -0.75142,1.901473 0.61383,0.275167 1.14652,0.536223 1.69685,0.758473 9.09815,3.665361 18.52084,6.021917 28.26809,7.129637 10.55864,1.202974 21.14198,1.524 31.75706,1.171224 0.15168,-0.0035 0.3034,-0.105834 0.45508,-0.162277 l -0.003,-0.0071 c -0.32104,0.772584 -1.01248,0.560917 -1.59808,0.58914 -7.78581,0.356304 -15.5575,0.194027 -23.3398,-0.30339 -10.69268,-0.68086 -21.13491,-2.54 -31.24903,-6.12775 -2.01084,-0.71261 -3.99698,-1.502833 -6.13482,-2.310693 -0.29633,0.892527 -0.59973,1.72861 -0.84666,2.582333 -0.53623,1.8415 -1.10419,3.675944 -1.53459,5.53861 -0.22931,1.005417 -0.2046,2.070809 -0.27868,2.903359 -0.63855,-0.74083 -0.8114,-1.20297 -0.55388,-2.568219 0.50096,-2.656417 1.0654,-5.30225 1.60163,-7.951613 0.067,-0.324554 0.13758,-0.645583 0.22929,-1.083027 -0.97367,-0.472723 -1.91911,-0.931333 -3.09034,-1.502833 -3.61595,11.825112 -7.41891,23.442082 -9.26745,35.866922 -0.18346,-0.73025 -0.34573,-1.21356 -0.41982,-1.70392 -0.0811,-0.55739 -0.0988,-1.12536 -0.11641,-1.68981 -0.14111,-4.44852 0.75141,-8.763 1.89089,-13.01397 1.79563,-6.69572 3.72179,-13.356166 5.59152,-20.034249 0.06,-0.211667 0.0952,-0.43039 0.1764,-0.79375 -0.79023,-0.649113 -1.60515,-1.322916 -2.59998,-2.141363 1.32998,-0.0035 1.85208,1.188863 2.92806,1.389947 0.20813,-0.550334 0.39863,-1.061863 0.71967,-1.905 -0.35983,-0.246947 -0.83256,-0.47625 -1.18181,-0.832557 -2.48709,-2.52236 -2.34244,-5.753806 0.44802,-7.895166 1.10421,-0.850194 2.37066,-1.538111 3.65125,-2.0955 1.16416,-0.511527 1.85914,-1.213557 2.35304,-2.420057 5.28812,-12.826997 10.31169,-25.752776 15.15885,-38.752636 1.10067,-2.956277 2.15194,-5.933721 3.21734,-8.904111 0.10935,-0.306916 0.15168,-0.642056 0.22931,-0.973666 -0.97721,-0.98425 -2.74463,-1.005417 -3.15031,-2.95275 1.43581,0.455083 2.67758,0.846666 4.064,1.28764 0.13051,-1.418167 0.23283,-2.645834 0.35631,-3.869974 0.0705,-0.709083 -0.381,-0.945443 -0.92075,-1.224139 -1.19592,-0.620887 -2.39538,-1.255887 -3.51367,-2.00025 -0.79023,-0.525637 -0.74438,-0.642054 -0.58563,-1.76036 1.85915,0.398639 3.39725,1.573389 5.2423,2.081389 1.7286,0.479777 3.43252,1.227667 5.24579,1.725084 0.26106,-0.419807 0.48331,-0.772584 0.79023,-1.262947 0.23635,0.635 0.40923,1.100667 0.66323,1.78153 3.62302,0.66675 7.31308,1.453443 11.03842,2.003777 3.67241,0.543277 7.38362,0.850193 11.13718,1.407583 -0.56443,0.08114 -1.1289,0.218723 -1.69685,0.23636 -6.3359,0.22578 -12.62592,-0.162277 -18.84188,-1.495777 -0.58912,-0.127 -1.18885,-0.20461 -1.91558,-0.328083 -0.16579,1.435807 -0.31044,2.69875 -0.47625,4.123973 6.18773,0.99836 12.28373,1.753304 18.4785,1.576917 -6.18419,1.29822 -12.38954,1.07597 -18.75012,0.34572 -0.8749,3.231446 -1.35467,6.579307 -2.83634,9.62378 0.5715,-3.213807 1.143,-6.427613 1.73919,-9.775473 -1.87325,-0.479777 -3.58775,-0.924277 -5.38692,-1.389944 -0.13052,0.3175 -0.29633,0.560917 -0.32102,0.814917 -0.381,3.788833 -1.50283,7.39422 -2.62114,11.003137 -3.66536,11.807473 -8.0645,23.339776 -12.88344,34.71686 -0.29988,0.705556 -0.56092,1.421693 -0.90665,2.314223 1.65452,-0.155223 2.61761,-0.550334 3.22086,-2.134307 3.11504,-8.22325 6.40291,-16.383 9.59908,-24.578026 0.91723,-2.353027 1.71804,-4.755444 2.79754,-7.083777 -0.15171,0.716137 -0.27871,1.435804 -0.46214,2.14136 -1.87325,7.330723 -4.48382,14.421556 -7.13669,21.49475 -1.08304,2.896306 -2.13079,5.806723 -3.26673,8.907637 26.80406,-4.646081 53.38585,-4.120444 80.17933,0.250473 -0.19402,-1.051277 -0.35631,-2.01436 -0.55033,-2.970387 -0.19757,-0.980723 -0.42333,-1.95439 -0.34219,-3.06564 0.21167,0.26811 0.50446,0.504473 0.62087,0.81139 0.51507,1.372304 1.06188,2.737554 1.4323,4.152193 0.29279,1.125361 0.79727,1.792111 2.01787,1.848554 0.55033,0.02469 1.09008,0.218723 1.91207,0.395113 -0.41627,-2.88925 -0.98777,-5.53861 -1.62984,-8.30439 -2.47298,0.338667 -4.84365,0.758473 -7.23193,0.966613 -2.35657,0.208137 -4.7625,0.61736 -7.06615,-0.529166 4.64608,-0.46214 9.29568,-0.927807 14.1111,-1.407584 -0.47977,-1.972029 -0.9031,-3.697113 -1.36525,-5.588 -1.25587,0.201084 -2.39887,0.448027 -3.556,0.564444 -3.2526,0.328083 -6.50168,0.691443 -9.76135,0.853723 -1.25942,0.0635 -2.55058,-0.363363 -3.81707,-0.599723 -0.23283,-0.04233 -0.43391,-0.23636 -0.61735,-0.504473 6.91798,0.504473 13.6525,-1.037167 20.53519,-1.25236 -0.762,0.275166 -1.52752,0.55386 -2.41652,0.874889 0.64558,1.823861 1.27352,3.608917 1.94733,5.510387 1.47108,-0.18697 2.85044,-0.359833 4.22982,-0.53622 0.0212,0.08114 0.0459,0.162277 0.0705,0.243417 -1.27703,0.391583 -2.55058,0.783166 -4.00401,1.227666 0.21518,0.786694 0.4445,1.576917 0.64558,2.370667 0.47273,1.85561 0.91368,3.721804 1.41816,5.57036 0.10584,0.391583 0.35632,0.93486 0.66675,1.051277 1.51342,0.546806 3.06917,0.97014 4.88244,1.520473 -0.47977,-1.98614 -0.89252,-3.70064 -1.30527,-5.418667 0.0847,-0.02469 0.16933,-0.05292 0.25048,-0.07761 0.62794,1.622777 1.30879,3.227914 1.86619,4.875387 0.27868,0.821973 0.72318,1.30175 1.52048,1.647473 1.29117,0.553861 2.56468,1.178277 3.7606,1.915584 0.89958,0.557387 1.75683,1.248833 2.46592,2.032 1.65452,1.834443 1.70743,4.28625 0.0952,6.166553 -0.82902,0.97014 -1.89442,1.742723 -3.00215,2.737557 2.8293,9.200443 5.81025,18.513775 7.96573,28.056415 2.15548,9.54617 3.69358,19.2017 4.81894,29.03363 0.56446,0 0.99838,0 1.43581,0 l -0.0388,-0.0494"
         style="fill:#000000;fill-opacity:1;fill-rule:nonzero;stroke:none;stroke-width:0.0352777" />
      <path
         id="path301"
         d="m 119.40974,166.74748 c -0.15875,2.18368 -0.30338,4.36737 -0.47977,6.54754 -0.31044,3.8735 -0.66675,7.74348 -0.95602,11.6205 -1.25238,16.66874 -1.397,33.36924 -0.88548,50.06623 0.27868,9.18633 0.91723,18.3656 1.524,27.53783 0.71614,10.86908 2.09198,21.67112 3.84175,32.41675 0.81491,5.00591 1.905,9.9695 2.83633,14.95425 0.19756,1.05479 0.64206,1.95085 1.4464,2.60702 1.91558,1.56985 3.7747,3.24202 5.84552,4.5861 7.57766,4.92831 15.74448,8.53371 24.57801,10.56217 0.52917,0.11996 1.04072,0.30339 1.51697,0.57856 -12.23082,-0.90665 -22.75065,-5.83494 -32.14513,-13.77244 0.15171,1.72154 0.4445,3.06211 1.9685,4.17336 7.10848,5.17877 14.99658,8.69598 23.3045,11.38766 5.00591,1.62277 10.11063,2.76225 15.37406,3.10798 0.19402,0.0106 0.381,0.0953 0.5574,0.38452 -1.11125,0 -2.21898,0.0423 -3.32671,-0.007 -8.06096,-0.34571 -15.63159,-2.65994 -23.01875,-5.71852 -6.52992,-2.70581 -12.42483,-6.41702 -17.57537,-11.2536 -1.34763,-1.26296 -2.48357,-2.75873 -3.63363,-4.21217 -0.53975,-0.6844 -0.45154,-0.75496 -0.21167,-1.85208 1.13242,2.159 2.92807,3.63008 4.96713,5.25285 -0.0388,-0.43392 -0.0246,-0.62793 -0.0776,-0.80081 -2.64935,-8.83002 -4.20158,-17.88229 -5.46804,-26.99454 -1.83091,-13.19742 -2.84339,-26.4654 -3.46781,-39.77217 -0.61031,-13.02808 -0.78317,-26.05968 -0.20815,-39.08777 0.34221,-7.77171 0.81846,-15.54339 1.43934,-23.29746 0.46566,-5.83141 1.25589,-11.63812 1.89441,-17.45543 0.0565,-0.49742 0.0529,-1.00542 0.0776,-1.50636 0.0917,-0.0177 0.18696,-0.0353 0.28221,-0.0529"
         style="fill:#000000;fill-opacity:1;fill-rule:nonzero;stroke:none;stroke-width:0.0352777" />
      <path
         id="path302"
         d="m 217.31615,42.492081 c 1.58398,0.09172 3.06917,-0.225777 4.66021,-0.659693 -0.44804,-1.407584 -0.84666,-2.67053 -1.27354,-4.025197 -1.41817,0.46214 -2.67404,0.87489 -4.03225,1.31939 0.21873,1.132417 0.41629,2.166057 0.64558,3.3655 z m -1.23825,-18.12925 c 0.23283,-0.45861 1.0513,-0.497416 0.84667,-1.287637 -0.24694,-0.956029 -0.41275,-1.933223 -0.64559,-3.069166 -1.43933,0.405693 -2.6952,0.762 -4.04635,1.146527 0.35632,1.273526 0.65265,2.33186 0.9666,3.446639 1.0654,-0.09878 1.99322,-0.186973 2.921,-0.271639 -0.83608,0.409223 -1.66862,0.818443 -2.65287,1.30175 0.23636,0.860776 0.48329,1.753306 0.74084,2.688166 0.67378,-0.09172 1.2065,-0.165806 1.7427,-0.23636 0.007,0.05644 0.014,0.112887 0.0212,0.169333 -0.48329,0.261054 -0.9666,0.525637 -1.57337,0.853721 0.36335,1.421696 0.71612,2.804583 1.06891,4.180416 1.19592,-0.09878 2.19427,-0.183443 3.19617,-0.26811 -0.9384,0.419807 -1.88031,0.83961 -2.94217,1.31586 0.22929,1.178277 0.45861,2.356557 0.71967,3.690057 1.40052,-0.254 2.63525,-0.472723 4.10633,-0.737307 -0.40571,-1.386416 -0.73379,-2.610556 -1.15006,-3.802943 -0.0706,-0.20814 -0.51858,-0.282223 -0.79375,-0.416277 0.37748,-0.282223 0.58208,-0.567973 0.43392,-1.118307 -0.67734,-2.518833 -1.29469,-5.051776 -1.94734,-7.63411 -0.37748,0.02117 -0.6985,0.0388 -1.01248,0.04939 z m -2.30362,9.28864 c -0.37748,-1.393473 -0.71615,-2.631723 -1.08305,-3.972277 -0.45508,0.0635 -0.82901,0.08819 -1.18885,0.17286 -5.05883,1.19239 -10.16352,2.067277 -15.37758,2.155474 -0.63852,0.01058 -1.28058,-0.148167 -1.92617,-0.44803 6.0466,-0.786694 12.08265,-1.453444 18.02342,-2.716387 0.0246,-0.28575 0.0812,-0.455083 0.0494,-0.60325 -0.15875,-0.712613 -0.34222,-1.418167 -0.56092,-2.296583 -3.42196,0.469193 -6.80156,0.959553 -10.18471,1.386416 -6.48404,0.818444 -8.34671,0.783167 -10.14942,-0.271639 6.90033,-0.05997 13.40205,-1.217084 20.04483,-2.102557 -0.12345,-0.73025 -0.20108,-1.273527 -0.31395,-1.80975 -0.10231,-0.49036 -0.2399,-0.973667 -0.38455,-1.53811 -3.54187,0.53975 -7.01675,1.153583 -10.51983,1.576917 -3.47837,0.419806 -6.98145,0.892526 -10.47395,-0.09172 6.9356,-0.486833 13.79712,-1.42875 20.69745,-2.550583 0.0917,-0.762 0.17288,-1.439333 0.26458,-2.197804 1.1148,0.250471 0.83257,1.284111 1.5099,1.837971 1.18885,-0.229304 2.49767,-0.483304 3.86998,-0.747887 -0.0953,-2.582334 -0.18698,-5.094113 -0.28929,-7.821084 -4.36737,1.439334 -8.80179,2.374194 -13.30677,2.966861 -4.46265,0.58561 -8.92527,0.973666 -13.38792,0.186973 -0.014,-0.14464 -0.0282,-0.292807 -0.0423,-0.437446 0.62442,-0.109361 1.24883,-0.264584 1.88031,-0.3175 2.64229,-0.211667 5.29871,-0.289277 7.92692,-0.606777 5.25992,-0.631473 10.50219,-1.407584 15.75858,-2.084917 1.00542,-0.130527 1.48519,-0.800806 1.89087,-1.6227768 0.8749,0.3527768 0.68088,1.0618598 0.72322,1.6227768 0.15168,2.19075 0.0882,4.41325 0.4445,6.568723 0.26458,1.61572 0.35277,3.256137 0.7267,4.85775 0.37042,1.591027 0.6209,3.210277 0.94898,4.811887 0.34219,1.65453 0.69498,3.309056 1.07598,4.95653 0.59971,2.578803 1.20296,5.15761 1.85912,7.72583 0.53272,2.088446 1.13949,4.15925 1.47463,6.328833 -0.52564,-1.354666 -1.05129,-2.705803 -1.59808,-4.106333 -1.56988,0.426863 -3.02331,0.8255 -4.52615,1.234723 0.13052,0.885473 0.25048,1.707444 0.37042,2.529417 -0.0741,0.02468 -0.14465,0.04586 -0.21873,0.07056 -0.32102,-0.779639 -0.63852,-1.562806 -1.01246,-2.469446 -1.50989,0.16228 -3.00921,0.370417 -4.51204,0.47625 -1.79917,0.123473 -3.60537,0.232833 -5.40454,0.211667 -1.4464,-0.0141 -2.8575,-0.328084 -4.04283,-1.354667 4.49791,0.850196 8.90058,0.04233 13.57487,-0.430387 -0.31044,-1.139473 -0.5856,-2.134306 -0.89604,-3.27378 -0.55388,0.05997 -1.04071,0.09525 -1.52048,0.15875 -2.794,0.36689 -5.58094,0.786697 -8.382,1.0795 -0.99483,0.105834 -2.02494,-0.04233 -3.02332,-0.1905 -0.56091,-0.08114 -1.08301,-0.39511 -1.5875,-0.8255 4.72017,0.08467 9.27455,-0.74436 14.0829,-1.404053 -0.34573,-1.27 -0.64558,-2.374196 -0.97015,-3.584223 -1.62628,0.310443 -3.09737,0.663223 -4.58962,0.860777 -2.56823,0.338666 -5.14704,0.613833 -7.72583,0.846666 -0.81846,0.07056 -1.66513,-0.05644 -2.24367,-1.17475 4.88244,-0.04233 9.50736,-0.702027 14.24517,-1.573387"
         style="fill:#000000;fill-opacity:1;fill-rule:nonzero;stroke:none;stroke-width:0.0352777" />
      <path
         id="path303"
         d="m 132.55778,314.7342 c -0.42333,-2.08492 -0.94546,-4.15571 -1.25238,-6.25475 -1.31233,-8.91117 -2.68816,-17.81527 -3.78529,-26.75467 -0.88548,-7.2037 -1.40758,-14.45683 -2.08139,-21.68877 -0.69144,-7.41891 -0.65969,-14.86251 -0.51507,-22.3026 0.0776,-4.10988 0.35984,-8.21973 0.5574,-12.32606 0.014,-0.27517 0.0988,-0.54327 0.381,-0.86429 0.0988,0.31395 0.27517,0.62442 0.28575,0.94192 0.0706,2.02845 0.1411,4.05693 0.13758,6.08539 -0.007,5.63739 -0.25752,11.28538 -0.0318,16.91216 0.31044,7.70822 0.8749,15.40934 1.51694,23.09638 0.58563,7.01321 1.32998,14.01585 2.16958,21.00437 0.87138,7.26371 1.93675,14.50271 2.91748,21.7523 0.014,0.10229 -0.0177,0.21518 -0.0282,0.32454 -0.0917,0.0246 -0.17991,0.0494 -0.27162,0.0741"
         style="fill:#000000;fill-opacity:1;fill-rule:nonzero;stroke:none;stroke-width:0.0352777" />
      <path
         id="path304"
         d="m 256.55563,144.82939 c 0.53269,-0.53271 0.46567,-1.17829 0.36335,-1.8415 -0.5997,-3.89821 -1.08653,-7.81756 -1.80975,-11.69812 -1.82385,-9.80722 -3.73591,-19.60033 -5.66208,-29.38991 -0.37745,-1.912059 -0.97012,-3.785309 -1.25942,-5.813779 0.39513,0.68086 0.92782,1.31586 1.15359,2.04611 0.86079,2.801059 1.73921,5.602109 2.39538,8.452549 2.86453,12.42484 5.02708,24.9802 6.52637,37.6414 0.87841,7.38363 1.59456,14.79196 2.28954,22.19677 0.32809,3.52777 0.43037,7.07319 0.40217,10.63625 -0.20463,-1.90148 -0.39513,-3.80648 -0.6209,-5.70793 -1.0019,-8.44905 -2.01083,-16.89455 -3.02331,-25.34357 -0.0635,-0.52564 0.067,-1.20298 -0.79375,-1.22766 l 0.0388,0.0494"
         style="fill:#000000;fill-opacity:1;fill-rule:nonzero;stroke:none;stroke-width:0.0352777" />
      <path
         id="path305"
         d="m 134.66386,251.333 c -0.11641,1.39345 -0.28929,2.78693 -0.33866,4.18393 -0.26107,7.45067 0.32102,14.86607 0.9525,22.27792 0.99129,11.67341 2.22954,23.3186 4.38854,34.84385 0.36337,1.92971 0.83962,3.83823 1.12183,5.842 -0.24342,-0.53269 -0.53269,-1.05127 -0.73025,-1.6016 -1.58044,-4.41677 -2.55762,-8.98877 -3.32669,-13.60311 -1.45343,-8.72421 -2.51531,-17.49779 -3.18558,-26.32075 -0.45508,-6.01839 -0.83608,-12.03324 -0.51506,-18.06929 0.13406,-2.5682 0.30691,-5.15408 1.63337,-7.55295"
         style="fill:#000000;fill-opacity:1;fill-rule:nonzero;stroke:none;stroke-width:0.0352777" />
      <path
         id="path306"
         d="m 232.23513,58.014304 c -0.34925,-0.627946 -0.70908,-1.252363 -1.04068,-1.89089 -3.1609,-6.088943 -5.18584,-12.597693 -7.09084,-19.148776 -1.89089,-6.512277 -3.24204,-13.137444 -3.63714,-19.910777 -0.14465,-2.458863 0.11993,-4.949473 0.29633,-7.4153896 0.0423,-0.5609167 0,-1.4005269 1.016,-1.6298333 0.35277,4.3003599 0.54681,8.5478059 1.0936,12.7458599 0.55388,4.24039 1.30882,8.466667 2.24367,12.64003 0.93488,4.17336 2.10963,8.30086 3.34433,12.39661 1.22415,4.071053 2.65642,8.07861 3.99698,12.11086 -0.0741,0.03528 -0.14817,0.07056 -0.22225,0.102306"
         style="fill:#000000;fill-opacity:1;fill-rule:nonzero;stroke:none;stroke-width:0.0352777" />
      <path
         id="path307"
         d="m 184.9629,334.57795 c 5.98313,1.19946 11.92038,0.63148 17.82588,-0.32808 15.38817,-2.50119 29.84145,-7.80344 43.70562,-14.81313 1.50283,-0.75848 3.01273,-1.50283 4.71313,-2.00379 -0.53271,0.38454 -1.03013,0.83608 -1.60515,1.143 -4.02873,2.1449 -8.02217,4.3674 -12.12498,6.36413 -10.35402,5.04118 -21.23017,8.49135 -32.60018,10.36108 -5.588,0.91721 -11.20069,1.30175 -16.84161,0.47977 -1.11125,-0.16227 -2.19429,-0.43744 -3.07271,-1.20298"
         style="fill:#000000;fill-opacity:1;fill-rule:nonzero;stroke:none;stroke-width:0.0352777" />
      <path
         id="path308"
         d="m 118.93703,159.56491 c 0.067,-1.48166 0.1411,-2.96333 0.20812,-4.445 0.20109,-4.56141 0.34221,-9.12989 0.63148,-13.68777 0.18344,-2.86456 0.58561,-5.71501 0.90311,-8.57251 0.0459,-0.38805 0.14816,-0.77611 0.26812,-1.15005 0.254,-0.79375 0.86784,-0.98778 1.61219,-0.86431 0.68792,0.11642 0.91369,0.61736 0.8749,1.24178 -0.0988,1.51694 -0.15171,3.04447 -0.35632,4.54731 -0.87135,6.30766 -1.76389,12.61532 -2.71639,18.90889 -0.21167,1.38993 -0.49742,2.80106 -1.42521,4.02166"
         style="fill:#000000;fill-opacity:1;fill-rule:nonzero;stroke:none;stroke-width:0.0352777" />
      <path
         id="path309"
         d="m 130.88913,136.15105 c -1.81327,16.60526 -2.21191,33.28459 -3.57716,49.89336 0,-2.45181 -0.0318,-4.9036 0.007,-7.35541 0.0705,-4.33917 0.12345,-8.67834 0.29279,-13.01398 0.33515,-8.55134 0.66675,-17.10619 1.95791,-25.58696 0.20815,-1.36173 0.33515,-2.77284 1.3194,-3.93701"
         style="fill:#000000;fill-opacity:1;fill-rule:nonzero;stroke:none;stroke-width:0.0352777" />
      <path
         id="path310"
         d="m 258.74286,225.00166 c 0.71612,20.27412 -0.0212,40.51652 -2.15548,60.71304 1.27707,-20.21417 1.9685,-40.4495 2.15548,-60.71304"
         style="fill:#000000;fill-opacity:1;fill-rule:nonzero;stroke:none;stroke-width:0.0352777" />
      <path
         id="path311"
         d="m 164.08198,44.682831 c -0.47976,-2.69875 -0.39862,-5.30225 0.0988,-7.881056 0.39158,-2.039054 0.87487,-4.063997 1.31937,-6.092471 0.0494,-0.218723 0.06,-0.497416 0.20108,-0.635 0.25755,-0.250473 0.64207,-0.631473 0.89255,-0.575026 0.34925,0.07761 0.8396,0.469193 0.889,0.783166 0.10935,0.705554 0.0988,1.47461 -0.0635,2.169584 -0.85725,3.605387 -1.76742,7.200193 -2.68817,10.787943 -0.13054,0.50447 -0.43039,0.963083 -0.64913,1.44286"
         style="fill:#000000;fill-opacity:1;fill-rule:nonzero;stroke:none;stroke-width:0.0352777" />
      <path
         id="path312"
         d="m 185.50265,15.194138 c -3.31258,-0.20461 -6.62868,-0.33514 -9.93068,-0.624417 -6.30061,-0.55386 -12.51302,-1.629833 -18.55259,-3.541889 -1.38993,-0.440971 -2.74815,-1.016 -4.064,-1.6439439 -0.73731,-0.34925 -1.36173,-0.9348603 -2.03552,-1.4111103 0.0529,-0.09878 0.10936,-0.2010833 0.16227,-0.2998628 0.29985,0.1411129 0.61384,0.2575295 0.9031,0.4198064 2.93865,1.6474731 6.17009,2.4623896 9.398,3.2384996 6.57932,1.580444 13.2433,2.677584 20.00605,3.136194 1.397,0.09525 2.78694,0.278696 4.18042,0.419806 -0.0212,0.102307 -0.0459,0.204611 -0.0671,0.306917"
         style="fill:#000000;fill-opacity:1;fill-rule:nonzero;stroke:none;stroke-width:0.0352777" />
      <path
         id="path313"
         d="m 223.41215,47.628525 c -3.7747,2.183696 -15.01068,2.959806 -17.83643,1.17475 3.11856,-0.112887 6.0466,-0.148167 8.96408,-0.342194 2.9069,-0.1905 5.80318,-0.536223 8.87235,-0.832556"
         style="fill:#000000;fill-opacity:1;fill-rule:nonzero;stroke:none;stroke-width:0.0352777" />
      <path
         id="path314"
         d="m 137.26382,116.21911 c 0.61738,-4.02873 1.22767,-8.06098 1.85563,-12.0897 0.0741,-0.46919 0.34218,-0.97014 0.87487,-0.73378 0.29633,0.13053 0.43392,0.66675 0.58915,1.04423 0.0529,0.127 -0.0529,0.32455 -0.0917,0.48683 -0.84313,3.55953 -1.67921,7.11553 -2.53294,10.668 -0.06,0.25047 -0.2399,0.47625 -0.36335,0.71261 -0.10938,-0.0318 -0.22225,-0.06 -0.33163,-0.0882"
         style="fill:#000000;fill-opacity:1;fill-rule:nonzero;stroke:none;stroke-width:0.0352777" />
      <path
         id="path315"
         d="m 225.49355,52.006498 c -3.97582,2.113139 -14.37923,2.928056 -17.26494,1.322916 1.84502,0 3.69359,0.07761 5.53154,-0.02117 1.905,-0.102307 3.79942,-0.36336 5.69738,-0.578557 1.88735,-0.211666 3.77119,-0.451553 6.03602,-0.723193"
         style="fill:#000000;fill-opacity:1;fill-rule:nonzero;stroke:none;stroke-width:0.0352777" />
      <path
         id="path316"
         d="m 190.14522,16.502944 c 6.20889,0.134054 12.35426,-0.560916 18.48556,-1.379362 -4.0358,1.837973 -15.9738,2.776362 -18.48556,1.379362"
         style="fill:#000000;fill-opacity:1;fill-rule:nonzero;stroke:none;stroke-width:0.0352777" />
      <path
         id="path317"
         d="m 159.60878,271.9846 c -0.80788,0.94543 -1.52048,1.778 -2.35656,2.75518 0.57856,0.0706 0.95956,0.11642 1.50635,0.17992 -0.98071,1.15713 -2.01084,1.67923 -3.35137,1.32646 -0.83963,-0.22225 -1.1924,-0.81492 -0.77613,-1.50283 0.99131,-1.62984 2.43416,-2.7305 4.33565,-3.12915 0.11641,-0.0246 0.27516,0.15169 0.64206,0.37042"
         style="fill:#000000;fill-opacity:1;fill-rule:nonzero;stroke:none;stroke-width:0.0352777" />
      <path
         id="path318"
         d="m 164.78403,236.2341 c 0.0317,1.42875 -0.61383,2.12018 -1.98615,2.14135 -1.23473,0.014 -2.07433,-0.59619 -2.06023,-1.49929 0.0177,-1.09715 1.34057,-2.36715 2.45533,-2.35656 1.09009,0.0106 1.56634,0.52565 1.59105,1.7145"
         style="fill:#000000;fill-opacity:1;fill-rule:nonzero;stroke:none;stroke-width:0.0352777" />
      <path
         id="path319"
         d="m 188.32488,237.40533 c -0.61031,0.88193 -1.08302,1.56279 -1.54165,2.22602 0.14817,0.33515 0.27517,0.62793 0.40572,0.92427 -0.1764,0.14464 -0.28575,0.28575 -0.43392,0.34573 -0.87138,0.35631 -1.75683,0.41981 -2.61408,-0.0177 -0.74084,-0.381 -0.86432,-1.00542 -0.38455,-1.68275 0.68088,-0.9666 2.90338,-1.89793 4.56848,-1.79562"
         style="fill:#000000;fill-opacity:1;fill-rule:nonzero;stroke:none;stroke-width:0.0352777" />
      <path
         id="path320"
         d="m 206.68345,275.17724 c -1.21005,0.0282 -2.13432,-0.49741 -2.10963,-1.20298 0.0246,-0.69498 0.97721,-1.20298 2.16254,-1.15358 1.03362,0.0388 1.80621,0.508 1.84854,1.12183 0.0494,0.67382 -0.76904,1.20298 -1.90145,1.23473"
         style="fill:#000000;fill-opacity:1;fill-rule:nonzero;stroke:none;stroke-width:0.0352777" />
      <path
         id="path321"
         d="m 157.31572,195.68231 c -0.55386,0.62087 -0.86784,1.28058 -1.32999,1.40758 -0.64558,0.17992 -1.4111,0.0177 -2.10253,-0.12348 -0.22932,-0.0459 -0.53272,-0.47273 -0.53272,-0.72673 0,-0.254 0.27872,-0.635 0.52917,-0.74787 1.00542,-0.45508 2.032,-0.39865 3.43607,0.1905"
         style="fill:#000000;fill-opacity:1;fill-rule:nonzero;stroke:none;stroke-width:0.0352777" />
      <path
         id="path322"
         d="m 223.23578,96.576441 c -1.10067,0.84314 -2.39538,0.599723 -3.61598,0.762 -0.0177,-0.105834 -0.0317,-0.215194 -0.0494,-0.324557 1.23121,-0.134053 2.4624,-0.26811 3.69358,-0.398637 l -0.0282,-0.03881"
         style="fill:#000000;fill-opacity:1;fill-rule:nonzero;stroke:none;stroke-width:0.0352777" />
      <path
         id="path323"
         d="m 199.69138,98.81658 c 1.16417,0 2.32834,0 3.49602,0 -1.16768,0.169334 -2.33892,0.673804 -3.49602,-0.0035 -0.003,-0.0035 0,0.0035 0,0.0035"
         style="fill:#000000;fill-opacity:1;fill-rule:nonzero;stroke:none;stroke-width:0.0352777" />
      <path
         id="path324"
         d="m 223.26398,96.615247 c 0.51859,-0.09525 1.03717,-0.186973 1.55575,-0.282223 0.007,0.11289 0.014,0.225777 0.0246,0.33514 -0.53623,-0.02822 -1.06892,-0.05645 -1.60515,-0.0882 -0.003,-0.0035 0.0246,0.03528 0.0246,0.03528"
         style="fill:#000000;fill-opacity:1;fill-rule:nonzero;stroke:none;stroke-width:0.0352777" />
      <path
         id="path325"
         d="m 205.54748,98.470857 c 0.32809,0 0.65617,0 0.98425,0 0.003,0.05292 0.007,0.105834 0.0106,0.162277 -0.35277,0.02117 -0.70554,0.04233 -1.06185,0.06703 0.0246,-0.07761 0.0459,-0.155223 0.067,-0.229307"
         style="fill:#000000;fill-opacity:1;fill-rule:nonzero;stroke:none;stroke-width:0.0352777" />
      <path
         id="path326"
         d="m 170.38261,347.32028 c 3.86644,0.92075 7.48946,1.30175 11.13719,1.27707 3.63715,-0.0282 7.27075,-0.19402 10.92552,-0.014 -2.39184,0.22225 -4.78012,0.53621 -7.17902,0.64911 -4.16983,0.19401 -8.34319,0.29633 -12.46365,-0.59267 -1.13242,-0.24694 -1.31585,-0.34925 -2.42004,-1.3194"
         style="fill:#000000;fill-opacity:1;fill-rule:nonzero;stroke:none;stroke-width:0.0352777" />
      <path
         id="path327"
         d="m 248.97445,330.94435 c -0.4163,0.83256 -0.58915,1.35466 -0.89959,1.77093 -1.29823,1.72509 -3.12208,2.67055 -5.12588,3.31259 -0.54678,0.17287 -1.02303,0.0388 -1.22766,-0.54327 -0.21519,-0.60677 0.16229,-0.94192 0.65264,-1.18182 1.30527,-0.64558 2.61409,-1.27352 3.91232,-1.92616 0.7761,-0.39159 1.53104,-0.81492 2.68817,-1.43227"
         style="fill:#000000;fill-opacity:1;fill-rule:nonzero;stroke:none;stroke-width:0.0352777" />
      <path
         id="path328"
         d="m 126.89922,332.83524 c -1.73215,-0.46566 -3.27025,-1.22062 -4.60023,-2.35304 -0.37746,-0.32454 -0.79727,-0.68437 -0.98071,-1.11829 -0.14465,-0.33515 0.0459,-0.81492 0.0847,-1.22767 0.35983,0.0529 0.81137,-0.014 1.06185,0.17992 1.67569,1.29821 3.24556,2.71637 4.43442,4.51908"
         style="fill:#000000;fill-opacity:1;fill-rule:nonzero;stroke:none;stroke-width:0.0352777" />
      <path
         id="path329"
         d="m 122.15436,325.59976 c 1.25236,1.21709 2.42711,2.36009 3.72886,3.62657 -2.55765,-0.635 -4.1134,-2.0955 -3.72886,-3.62657"
         style="fill:#000000;fill-opacity:1;fill-rule:nonzero;stroke:none;stroke-width:0.0352777" />
      <path
         id="path330"
         d="m 247.2564,329.5156 c -1.18533,2.06375 -2.49412,2.87866 -4.17335,2.53648 1.21356,-1.32998 3.00215,-1.45346 4.17335,-2.53648"
         style="fill:#000000;fill-opacity:1;fill-rule:nonzero;stroke:none;stroke-width:0.0352777" />
      <path
         id="path331"
         d="m 194.85832,348.2622 c -0.37042,0.0353 -0.74084,0.0706 -1.11125,0.10231 -0.007,-0.0741 -0.0177,-0.15168 -0.0282,-0.22931 0.37042,-0.0388 0.74084,-0.0811 1.11125,-0.11994 0.0106,0.0811 0.0177,0.16582 0.0282,0.24694"
         style="fill:#000000;fill-opacity:1;fill-rule:nonzero;stroke:none;stroke-width:0.0352777" />
      <path
         id="path332"
         d="m 147.4697,-7.9480822 c 1.83443,0.2293038 3.66887,0.4586102 5.72203,0.7126102 -0.43743,-0.7408333 -0.78668,-1.3334999 -1.19943,-2.0319999 0.34573,-0.1023065 0.59973,-0.2610565 0.83256,-0.2293065 0.49742,0.0635 1.00542,0.1693334 1.47461,0.34925 3.66183,1.4005296 7.51416,1.8661962 11.59581,2.3459731 -0.27517,0.2363602 -0.40571,0.3845269 -0.5715,0.47625 -0.17992,0.098777 -0.38806,0.1446398 -0.93133,0.3351398 0.68437,0.2187204 1.016,0.3598333 1.36525,0.4303871 2.19427,0.4374462 4.47675,0.4480295 6.56166,1.4146397 0.29279,0.1375834 0.65969,0.1375834 0.99484,0.15875 6.07483,0.3880565 12.16377,0.8325565 18.2386,0.3316103 4.53673,-0.3739436 9.03817,-1.1465269 13.55725,-1.7356667 0.41627,-0.056444 0.83256,-0.098777 1.25235,-0.1481667 0.0177,0.1164167 0.0388,0.2328334 0.0565,0.34925 -2.86456,0.5362231 -5.715,1.1500565 -8.59366,1.5875 -8.01159,1.2276667 -16.05847,1.0265833 -24.1159,0.5009462 -8.06802,-0.5256397 -15.95967,-2.0672795 -23.78782,-4.0004999 -0.82195,-0.2010834 -1.8556,0.052917 -2.40945,-0.8960565 0,-0.00352 -0.0423,0.04939 -0.0423,0.04939"
         style="fill:#000000;fill-opacity:1;fill-rule:nonzero;stroke:none;stroke-width:0.0352777" />
      <path
         id="path333"
         d="m 152.7049,-10.879665 c 1.34057,-0.15875 12.2414,1.7533033 13.36675,2.3001097 -3.44662,1.2029731 -11.73337,-0.1481666 -13.36675,-2.3001097"
         style="fill:#000000;fill-opacity:1;fill-rule:nonzero;stroke:none;stroke-width:0.0352777" />
      <path
         id="path334"
         d="m 215.21361,-10.406945 c 2.46237,-0.58561 4.73779,-1.12536 7.01321,-1.661583 -1.84854,1.393473 -5.39396,2.2119163 -7.01321,1.661583"
         style="fill:#000000;fill-opacity:1;fill-rule:nonzero;stroke:none;stroke-width:0.0352777" />
      <path
         id="path335"
         d="m 187.06547,-24.214665 c -0.43392,-0.02469 -0.86784,-0.04586 -1.30175,-0.07056 0.007,-0.07761 0.0106,-0.15875 0.0177,-0.23989 0.43037,0.03528 0.86429,0.06703 1.29821,0.102307 -0.003,0.06703 -0.0106,0.137583 -0.014,0.20814"
         style="fill:#000000;fill-opacity:1;fill-rule:nonzero;stroke:none;stroke-width:0.0352777" />
      <path
         id="path336"
         d="m 215.61223,3.3937215 c -0.18343,-0.8713602 0.3669,-0.9913065 0.85022,-1.0971398 2.73402,-0.5891371 5.4751,-1.1571102 8.32202,-1.7568333 -1.75684,1.7921129 -7.05557,3.4148897 -9.17224,2.8539731"
         style="fill:#000000;fill-opacity:1;fill-rule:nonzero;stroke:none;stroke-width:0.0352777" />
      <path
         id="path337"
         d="m 151.74888,1.2982215 c 3.77119,1.0124731 7.54592,2.0249435 11.3171,3.0374166 -4.0287,-0.098777 -7.91633,-0.7443602 -11.47937,-2.6281935 0.0564,-0.1340564 0.10936,-0.2716398 0.16227,-0.4092231"
         style="fill:#000000;fill-opacity:1;fill-rule:nonzero;stroke:none;stroke-width:0.0352777" />
    </g>
  </g>
</svg>
